<?xml version="1.0" encoding="utf-8"?>
<!-- Generator: Adobe Illustrator 16.0.0, SVG Export Plug-In . SVG Version: 6.00 Build 0)  -->
<!DOCTYPE svg PUBLIC "-//W3C//DTD SVG 1.1//EN" "http://www.w3.org/Graphics/SVG/1.1/DTD/svg11.dtd">
<svg version="1.1" id="vpn-analogy" xmlns="http://www.w3.org/2000/svg" xmlns:xlink="http://www.w3.org/1999/xlink" x="0px"
	 y="0px" width="1281.176px" height="721.176px" viewBox="-161 -80 1281.176 721.176"
	 enable-background="new -161 -80 1281.176 721.176" xml:space="preserve">
<g id="Node-PostalService">
	<g id="Postman">
		<g>
			<path d="M232.327,34.925c-3.311,0-6.396,0-9.971,0c0-1.688,0-3.199,0-4.709c0-0.734,0.056-1.474-0.021-2.2
				c-0.786-8.096,0.521-15.712,5.099-22.598c0.185-0.279,0.245-0.635,0.511-1.343c-3.375,1.277-5.85,2.522-6.466,6.396
				c-0.768,4.867-2.249,9.622-3.448,14.421c-0.85,3.409-3.142,4.863-6.268,4.017c-2.843-0.771-4.272-3.359-3.538-6.413
				c1.625-6.769,3.178-13.557,4.949-20.284c0.325-1.225,1.357-2.596,2.454-3.227c5.236-3.018,10.61-5.801,15.935-8.674
				c2.103-1.138,4.208-2.038,6.693-1.087c0.513,0.195,1.257-0.215,2.216-0.413c-0.752-0.555-1.277-0.958-1.818-1.341
				c-4.4-3.12-6.246-8.846-3.857-13.626c1.248-2.509,2.117-4.73,0.496-7.659c6.809-1.255,13.216-2.438,20.065-3.701
				c-0.953,2.242-1.698,3.996-2.501,5.882c0.873,0.542,1.705,1.057,2.8,1.734c-0.797,0.228-1.39,0.397-2.015,0.576
				c4.331,6.975,3.324,13.49-4.423,18.283c0.28,0.104,0.535,0.302,0.765,0.269c4.15-0.604,5.926,1.896,7.406,5.242
				c1.513,3.427,3.357,6.729,5.304,9.936c0.661,1.094,1.96,2.155,3.174,2.503c4.754,1.358,9.588,2.425,14.394,3.603
				c0.619,0.152,1.245,0.296,1.858,0.497c2.935,0.966,4.365,3.337,3.717,6.121c-0.631,2.699-3.201,4.397-6.123,3.715
				c-7.211-1.685-14.39-3.485-21.563-5.337c-0.763-0.197-1.475-0.953-1.998-1.616c-0.633-0.804-1.032-1.786-1.541-2.691
				c-0.337,0.061-0.675,0.122-1.013,0.183c0,3.248,0.072,6.499-0.019,9.743c-0.133,4.569-0.475,9.134-0.514,13.702
				c-0.01,1.242,0.461,2.699,1.198,3.701c4.016,5.462,8.266,10.759,12.242,16.252c0.786,1.087,1.222,2.869,0.992,4.184
				c-1.456,8.394-3.113,16.751-4.765,25.109c-0.76,3.831-3.838,5.896-7.436,5.125c-3.344-0.718-5.207-3.859-4.49-7.62
				c1.269-6.661,2.586-13.312,3.792-19.984c0.162-0.898,0.119-2.126-0.376-2.804c-3.178-4.357-6.507-8.603-10.201-13.426
				c-0.839,3.672-1.567,6.799-2.266,9.932c-0.896,4.022-1.671,8.077-2.717,12.063c-0.286,1.084-1.114,2.337-2.06,2.887
				c-7.444,4.332-14.963,8.541-22.489,12.73c-3.438,1.914-7.114,0.973-8.805-2.125c-1.713-3.13-0.563-6.592,2.927-8.579
				c5.812-3.311,11.669-6.545,17.47-9.879c0.808-0.465,1.839-1.227,2.004-2.011c1.579-7.516,3.016-15.063,4.422-22.614
				C232.679,36.922,232.413,36.001,232.327,34.925z M233.718,1.507c-0.155-0.071-0.311-0.142-0.467-0.214
				c-2.073,4.129-4.147,8.259-6.454,12.854c7.826,0,15.279,0,23.276,0c-1.459,1.6-2.479,2.71-3.496,3.822
				c0.064,0.049,0.132,0.1,0.191,0.15c1.146-1.03,2.291-2.06,3.907-3.513c0,3.563,0,6.37,0,9.178
				c0.288-2.928,0.372-5.848,0.218-8.757c-0.032-0.612-0.884-1.619-1.446-1.683c-1.488-0.167-3.013,0.141-4.525,0.155
				c-3.72,0.034-7.439,0.011-11.205,0.011C233.718,9.262,233.718,5.385,233.718,1.507z"/>
			<path d="M311.144,10.073c0,3.506-0.083,6.619,0.035,9.723c0.065,1.648-0.817,2.136-2.11,2.145
				c-6.762,0.053-13.521,0.099-20.282-0.037c-0.683-0.014-1.879-1.221-1.922-1.935c-0.211-3.182-0.091-6.385-0.091-9.897
				C294.948,10.073,302.941,10.073,311.144,10.073z"/>
		</g>
		<path fill="#FFFFFF" d="M233.718,1.507c0,3.878,0,7.754,0,12c3.766,0,7.489,0.024,11.205-0.011
			c1.512-0.014,3.041-0.322,4.524-0.155c0.563,0.064,1.414,1.071,1.452,1.684c0.153,2.908,0.069,5.829-0.219,8.757
			c0-2.807,0-5.616,0-9.178c-1.616,1.453-2.763,2.483-3.907,3.514c-0.064-0.05-0.132-0.101-0.19-0.15
			c1.02-1.111,2.036-2.222,3.495-3.822c-7.997,0-15.45,0-23.271,0c2.302-4.593,4.376-8.723,6.454-12.853
			C233.407,1.365,233.563,1.436,233.718,1.507z"/>
	</g>
	<g id="Node_x5F__x5F_Cloud" display="none">
		<path display="inline" fill="#C9C9C9" d="M778.953,146.125c18.902-47.703-7.58-100.545-59.171-118.032
			c-23.735-8.044-48.607-7.114-70.438,0.794c-4.062-25.974-23.005-49.106-51.515-58.761c-32.228-10.933-67.098-1.352-88.135,21.477
			c-14.624-17.012-34.318-30.633-57.989-38.657c-68.613-23.261-144.63,9.325-169.779,72.778c-0.926,2.359-1.76,4.721-2.521,7.092
			c-31.823-6.811-64.89,9.159-76.426,38.249c-9.329,23.536-1.903,48.962,16.646,65.133
			c-14.534,48.699,13.478,100.354,65.683,118.047c30.403,10.306,62.58,6.879,88.708-6.793c7.365,4.768,15.42,8.811,24.245,11.808
			c35.162,11.916,72.687,5.478,100.484-13.96c12.407,15.241,29.471,27.51,50.283,34.56c57.418,19.46,121.039-7.81,142.085-60.909
			c1.706-4.312,2.959-8.654,4.011-13.007C731.977,202.615,765.36,180.415,778.953,146.125L778.953,146.125z"/>
		<g display="inline" enable-background="new    ">
			<path d="M340.252-30.772c1.067-0.177,2.464-0.33,4.242-0.33c2.186,0,3.786,0.508,4.803,1.423c0.939,0.814,1.5,2.058,1.5,3.583
				c0,1.55-0.458,2.769-1.322,3.658c-1.169,1.245-3.074,1.88-5.234,1.88c-0.66,0-1.27-0.025-1.778-0.152v6.861h-2.21V-30.772
				L340.252-30.772z M342.462-22.514c0.483,0.126,1.093,0.177,1.83,0.177c2.667,0,4.292-1.295,4.292-3.659
				c0-2.261-1.601-3.354-4.041-3.354c-0.965,0-1.702,0.076-2.083,0.178L342.462-22.514L342.462-22.514z"/>
			<path d="M364.183-20.101c0,4.548-3.15,6.53-6.123,6.53c-3.329,0-5.895-2.439-5.895-6.325c0-4.117,2.692-6.531,6.098-6.531
				C361.795-26.427,364.183-23.861,364.183-20.101z M354.427-19.974c0,2.693,1.549,4.726,3.734,4.726
				c2.135,0,3.735-2.007,3.735-4.777c0-2.083-1.041-4.726-3.685-4.726C355.57-24.75,354.427-22.311,354.427-19.974z"/>
			<path d="M366.695-16.138c0.661,0.433,1.829,0.889,2.947,0.889c1.626,0,2.389-0.813,2.389-1.829c0-1.066-0.635-1.65-2.287-2.26
				c-2.21-0.788-3.253-2.007-3.253-3.48c0-1.983,1.6-3.608,4.24-3.608c1.245,0,2.34,0.355,3.026,0.763l-0.56,1.625
				c-0.482-0.305-1.372-0.712-2.513-0.712c-1.324,0-2.061,0.763-2.061,1.676c0,1.018,0.737,1.474,2.337,2.084
				c2.134,0.813,3.228,1.879,3.228,3.709c0,2.16-1.677,3.684-4.599,3.684c-1.348,0-2.592-0.331-3.456-0.838L366.695-16.138z"/>
			<path d="M379.753-29.68v3.532h3.202v1.703h-3.202v6.631c0,1.525,0.432,2.389,1.677,2.389c0.584,0,1.016-0.076,1.296-0.152
				l0.102,1.676c-0.432,0.178-1.118,0.305-1.982,0.305c-1.042,0-1.88-0.331-2.414-0.94c-0.635-0.662-0.863-1.753-0.863-3.202v-6.707
				h-1.905v-1.703h1.905v-2.948L379.753-29.68z"/>
			<path d="M392.277-13.851l-0.181-1.551h-0.076c-0.686,0.967-2.008,1.829-3.761,1.829c-2.489,0-3.759-1.752-3.759-3.531
				c0-2.973,2.643-4.599,7.39-4.573v-0.254c0-1.017-0.279-2.845-2.794-2.845c-1.142,0-2.338,0.354-3.202,0.915l-0.508-1.474
				c1.02-0.662,2.489-1.092,4.043-1.092c3.759,0,4.675,2.566,4.675,5.031v4.599c0,1.066,0.051,2.108,0.204,2.946H392.277z
				 M391.946-20.126c-2.438-0.051-5.208,0.382-5.208,2.771c0,1.448,0.965,2.134,2.11,2.134c1.6,0,2.616-1.017,2.972-2.058
				c0.076-0.229,0.126-0.484,0.126-0.712V-20.126z"/>
			<path d="M397.711-31.89h2.235v18.04h-2.235V-31.89z"/>
			<path d="M408.863-16.543c0.991,0.608,2.438,1.117,3.964,1.117c2.261,0,3.583-1.194,3.583-2.922c0-1.6-0.917-2.515-3.227-3.405
				c-2.796-0.99-4.526-2.438-4.526-4.852c0-2.668,2.212-4.65,5.54-4.65c1.752,0,3.024,0.407,3.783,0.838l-0.608,1.805
				c-0.56-0.305-1.702-0.814-3.256-0.814c-2.338,0-3.228,1.399-3.228,2.567c0,1.602,1.042,2.39,3.409,3.304
				c2.894,1.118,4.367,2.515,4.367,5.031c0,2.642-1.957,4.93-5.996,4.93c-1.65,0-3.454-0.483-4.37-1.093L408.863-16.543z"/>
			<path d="M423.012-19.593c0.051,3.023,1.985,4.268,4.218,4.268c1.6,0,2.566-0.279,3.405-0.635l0.384,1.601
				c-0.788,0.355-2.137,0.763-4.094,0.763c-3.783,0-6.047-2.491-6.047-6.2c0-3.71,2.185-6.632,5.768-6.632
				c4.015,0,5.081,3.532,5.081,5.794c0,0.456-0.051,0.813-0.077,1.041H423.012z M429.566-21.193
				c0.027-1.422-0.584-3.632-3.096-3.632c-2.261,0-3.256,2.083-3.431,3.632H429.566z"/>
			<path d="M434.492-22.311c0-1.449-0.025-2.694-0.102-3.837h1.956l0.08,2.413h0.102c0.556-1.652,1.905-2.693,3.405-2.693
				c0.254,0,0.432,0.027,0.635,0.078v2.108c-0.229-0.051-0.458-0.078-0.762-0.078c-1.575,0-2.694,1.194-2.998,2.872
				c-0.051,0.305-0.102,0.662-0.102,1.041v6.557h-2.21L434.492-22.311L434.492-22.311z"/>
			<path d="M444.298-26.148l2.41,6.91c0.407,1.119,0.737,2.135,0.991,3.149h0.076c0.283-1.016,0.635-2.031,1.042-3.149l2.388-6.91
				h2.336l-4.822,12.297h-2.133l-4.679-12.297H444.298z"/>
			<path d="M458.142-29.602c0.027,0.762-0.533,1.372-1.424,1.372c-0.788,0-1.346-0.609-1.346-1.372c0-0.788,0.584-1.399,1.396-1.399
				C457.608-31.001,458.142-30.39,458.142-29.602z M455.652-13.851v-12.297h2.235v12.297H455.652z"/>
			<path d="M470.361-14.308c-0.584,0.305-1.879,0.713-3.532,0.713c-3.708,0-6.12-2.515-6.12-6.276c0-3.785,2.591-6.529,6.603-6.529
				c1.321,0,2.489,0.33,3.1,0.635l-0.508,1.727c-0.534-0.305-1.373-0.584-2.592-0.584c-2.821,0-4.345,2.083-4.345,4.648
				c0,2.846,1.83,4.599,4.27,4.599c1.27,0,2.108-0.33,2.744-0.609L470.361-14.308z"/>
			<path d="M474.069-19.593c0.051,3.023,1.986,4.268,4.217,4.268c1.602,0,2.566-0.279,3.406-0.635l0.379,1.601
				c-0.786,0.355-2.133,0.763-4.09,0.763c-3.786,0-6.045-2.491-6.045-6.2c0-3.71,2.185-6.632,5.769-6.632
				c4.013,0,5.081,3.532,5.081,5.794c0,0.456-0.05,0.813-0.08,1.041H474.069z M480.624-21.193c0.026-1.422-0.584-3.632-3.1-3.632
				c-2.257,0-3.252,2.083-3.427,3.632H480.624z"/>
		</g>
	</g>
</g>
<g id="Node-MailBox">
	<g>
		<g>
			<g>
				<g>
					<path d="M-8.582,121.111c0-25.773,26.836-46.741,59.823-46.741c32.978,0,59.808,20.968,59.808,46.741v2.782H-8.582V121.111z
						 M51.241,79.935C22.554,79.935-1,96.918-2.893,118.329h108.255C103.471,96.918,79.917,79.935,51.241,79.935"/>
				</g>
				<g>
					<path d="M-1.591,118.908h106.734V239.81H-1.591V118.908z M99.541,124.509H4.011v109.7h95.53V124.509z"/>
					<rect x="-6.401" y="234.484" width="116.33" height="5.563"/>
					<rect x="20.117" y="135.16" width="60.542" height="5.565"/>
					<rect x="20.117" y="140.31" width="60.542" height="6.115"/>
					<rect x="19.49" y="150.205" width="4.249" height="60.789"/>
					<rect x="28.493" y="150.205" width="4.25" height="60.789"/>
					<rect x="37.248" y="150.205" width="4.25" height="60.789"/>
				</g>
			</g>
		</g>
	</g>
	<g enable-background="new    ">
		<path d="M41.558,100.706c-0.116-2.168-0.254-4.774-0.231-6.711h-0.07c-0.53,1.823-1.176,3.759-1.96,5.903l-2.744,7.542H35.03
			l-2.513-7.404c-0.738-2.191-1.36-4.198-1.799-6.043h-0.047c-0.045,1.937-0.162,4.543-0.3,6.872l-0.416,6.666h-1.914l1.084-15.543
			h2.56l2.652,7.518c0.645,1.915,1.176,3.623,1.568,5.235h0.069c0.393-1.567,0.946-3.274,1.639-5.235l2.767-7.518h2.561
			l0.969,15.543h-1.959L41.558,100.706z"/>
		<path d="M49.285,102.645l-1.614,4.89h-2.076l5.281-15.543h2.42l5.304,15.543h-2.144l-1.66-4.89H49.285z M54.382,101.076
			l-1.521-4.474c-0.345-1.016-0.577-1.937-0.808-2.836h-0.045c-0.231,0.922-0.484,1.869-0.785,2.813l-1.521,4.498L54.382,101.076
			L54.382,101.076z"/>
		<path d="M62.893,91.989v15.543h-2.007V91.989H62.893z"/>
		<path d="M66.399,91.989h2.006v13.861h6.642v1.683h-8.649L66.399,91.989L66.399,91.989z"/>
	</g>
</g>
<g id="Node-Sam">
	<path id="Sam" d="M999.988,51.48c-2.261,0-4.094,1.833-4.094,4.096c0,2.262,1.828,4.096,4.094,4.096
		c2.267,0,4.096-1.833,4.096-4.096S1002.251,51.48,999.988,51.48 M985.507,1.555c-33.208,0-60.227,27.018-60.227,60.226
		c0,33.209,27.018,60.226,60.227,60.226c33.21,0,60.226-27.017,60.226-60.226C1045.732,28.574,1018.716,1.555,985.507,1.555
		 M985.507,114.386c-29.007,0-52.605-23.598-52.605-52.605c0-29.007,23.599-52.605,52.605-52.605s52.605,23.599,52.605,52.605
		C1038.112,90.789,1014.514,114.386,985.507,114.386 M971.025,51.48c-2.263,0-4.1,1.833-4.1,4.096c0,2.262,1.832,4.096,4.1,4.096
		c2.255,0,4.094-1.833,4.094-4.096S973.285,51.48,971.025,51.48 M1008.861,69.273c5.695-5.389,9.208-12.92,9.208-21.739
		c0-13.365-6.345-26.529-20.094-28.439c-4.026-3.101-7.926-4.609-15.368-4.609c-17.979,0-29.661,15.062-29.661,33.048
		c0,8.821,3.513,16.354,9.211,21.742c1.452,2.198,3.21,4.18,5.212,5.885c-7.214,4.838-12.72,12.756-13.416,23.281
		c8.792,6.359,19.576,10.132,31.239,10.198c1.357-0.005,2.704-0.047,4.048-0.127c9.851-0.671,18.972-3.991,26.665-9.252
		c-0.448-10.604-5.732-18.642-12.793-23.641C1005.332,73.812,1007.275,71.67,1008.861,69.273 M985.508,78.326
		c-13.474,0-24.443-10.966-24.443-24.443c0-0.331,0.012-0.658,0.024-0.982c2.221-1.985,6.993-3.121,12.026-4.315
		c6.794-1.615,14.394-3.421,19.061-8.011c2.467,3.155,8.262,9.138,17.641,10.665c0.092,0.878,0.139,1.766,0.139,2.643
		C1009.95,67.359,998.985,78.326,985.508,78.326"/>
	<g enable-background="new    ">
		<path d="M967.383-16.543c0.991,0.608,2.439,1.117,3.963,1.117c2.259,0,3.579-1.194,3.579-2.922c0-1.6-0.914-2.515-3.226-3.405
			c-2.792-0.99-4.523-2.438-4.523-4.852c0-2.668,2.211-4.65,5.534-4.65c1.758,0,3.027,0.407,3.786,0.838l-0.608,1.805
			c-0.56-0.305-1.706-0.814-3.255-0.814c-2.339,0-3.228,1.399-3.228,2.567c0,1.602,1.042,2.39,3.403,3.304
			c2.898,1.118,4.371,2.515,4.371,5.031c0,2.642-1.957,4.93-5.995,4.93c-1.656,0-3.46-0.483-4.371-1.093L967.383-16.543z"/>
		<path d="M987.02-13.851l-0.181-1.551h-0.077c-0.686,0.967-2.007,1.829-3.761,1.829c-2.489,0-3.76-1.752-3.76-3.531
			c0-2.973,2.644-4.599,7.393-4.573v-0.254c0-1.017-0.282-2.845-2.794-2.845c-1.143,0-2.338,0.354-3.203,0.915l-0.505-1.474
			c1.018-0.662,2.491-1.092,4.04-1.092c3.76,0,4.675,2.566,4.675,5.031v4.599c0,1.066,0.051,2.108,0.203,2.946H987.02z
			 M986.689-20.126c-2.443-0.051-5.212,0.382-5.212,2.771c0,1.448,0.966,2.134,2.108,2.134c1.601,0,2.617-1.017,2.973-2.058
			c0.08-0.229,0.131-0.484,0.131-0.712V-20.126z"/>
		<path d="M992.453-22.82c0-1.27-0.024-2.311-0.098-3.328h1.957l0.099,1.981h0.079c0.686-1.168,1.826-2.26,3.861-2.26
			c1.677,0,2.948,1.017,3.481,2.464h0.051c0.382-0.686,0.863-1.219,1.372-1.601c0.733-0.559,1.551-0.865,2.719-0.865
			c1.626,0,4.04,1.068,4.04,5.335v7.242h-2.185v-6.961c0-2.362-0.864-3.785-2.669-3.785c-1.271,0-2.26,0.939-2.642,2.033
			c-0.103,0.305-0.182,0.711-0.182,1.118v7.595h-2.186v-7.368c0-1.957-0.864-3.38-2.566-3.38c-1.4,0-2.413,1.118-2.771,2.236
			c-0.128,0.331-0.179,0.711-0.179,1.093v7.418h-2.189v-8.97H992.453z"/>
	</g>
</g>
<g id="Node-Vicky_1_" display="none">
	<path id="Node-Vicky" display="inline" d="M582.431,442.497c2.641,0,4.784-2.141,4.784-4.783s-2.144-4.788-4.784-4.788
		c-2.644,0-4.79,2.145-4.79,4.788C577.646,440.356,579.787,442.497,582.431,442.497 M548.588,432.931
		c-2.644,0-4.785,2.145-4.785,4.789c0,2.642,2.142,4.782,4.785,4.782c2.641,0,4.787-2.141,4.787-4.782
		C553.37,435.071,551.229,432.931,548.588,432.931 M580.071,395.089c-4.703-3.623-9.259-5.381-17.95-5.381
		c-21.013,0-34.661,17.596-34.661,38.608c0,10.307,4.105,19.107,10.762,25.404c1.7,2.57,3.751,4.89,6.087,6.878
		c-8.425,5.651-14.854,14.904-15.671,27.202c10.271,7.436,22.873,11.837,36.5,11.916c1.585-0.008,3.16-0.058,4.723-0.144
		c11.512-0.784,22.172-4.668,31.158-10.817c-0.519-12.389-6.695-21.776-14.951-27.623c2.608-2.11,4.879-4.612,6.732-7.416
		c6.649-6.296,10.758-15.096,10.758-25.4C603.555,412.7,596.138,397.321,580.071,395.089 M594.068,435.734
		c0,15.748-12.817,28.561-28.56,28.561c-15.749,0-28.561-12.813-28.561-28.561c0-0.384,0.008-0.767,0.027-1.144
		c2.595-2.319,8.169-3.646,14.051-5.048c7.937-1.882,16.816-3.995,22.271-9.359c2.881,3.688,9.653,10.678,20.608,12.464
		C594.011,433.673,594.068,434.708,594.068,435.734 M632.827,450.055c0.055-1.109,0.082-2.205,0.082-3.276
		c0-1.07-0.027-2.166-0.082-3.275l10.435-10.154c0.763-0.739,1.087-1.813,0.875-2.851c-0.622-3.003-1.426-6.008-2.388-8.926
		c-0.338-1.006-1.157-1.773-2.19-2.038l-14.102-3.571c-1.004-1.948-2.105-3.853-3.288-5.689l3.946-13.982
		c0.292-1.021,0.036-2.118-0.667-2.909c-2.04-2.293-4.248-4.497-6.547-6.549c-0.791-0.706-1.888-0.956-2.907-0.664l-13.983,3.943
		c-1.836-1.184-3.74-2.283-5.689-3.287l-3.572-14.103c-0.261-1.033-1.033-1.851-2.038-2.188c-2.918-0.966-5.925-1.77-8.93-2.39
		c-1.031-0.213-2.106,0.117-2.846,0.876l-10.154,10.434c-2.219-0.107-4.33-0.107-6.55,0l-10.154-10.434
		c-0.737-0.764-1.813-1.089-2.849-0.876c-3.006,0.62-6.006,1.424-8.928,2.39c-1.01,0.337-1.773,1.154-2.036,2.188l-3.576,14.103
		c-1.943,1.004-3.848,2.104-5.688,3.287l-13.983-3.943c-1.019-0.291-2.115-0.037-2.907,0.664c-2.304,2.052-4.507,4.261-6.548,6.549
		c-0.706,0.791-0.958,1.888-0.671,2.909l3.95,13.982c-1.184,1.835-2.285,3.739-3.287,5.689l-14.104,3.571
		c-1.027,0.261-1.854,1.033-2.185,2.038c-0.965,2.924-1.769,5.928-2.388,8.925c-0.213,1.038,0.118,2.112,0.874,2.85l10.436,10.155
		c-0.055,1.108-0.082,2.205-0.082,3.275s0.027,2.168,0.082,3.276l-10.436,10.154c-0.761,0.738-1.087,1.813-0.874,2.851
		c0.619,2.996,1.423,6.004,2.388,8.923c0.331,1.008,1.157,1.774,2.185,2.038l14.104,3.572c1.002,1.948,2.104,3.851,3.287,5.689
		l-3.95,13.982c-0.287,1.02-0.03,2.117,0.671,2.907c2.05,2.302,4.253,4.504,6.549,6.549c0.791,0.707,1.884,0.957,2.906,0.665
		L529,503.44c1.836,1.185,3.741,2.284,5.688,3.287l3.576,14.103c0.259,1.033,1.028,1.851,2.036,2.188
		c2.925,0.967,5.932,1.769,8.928,2.388c0.207,0.044,0.417,0.063,0.626,0.063c0.828,0,1.633-0.331,2.223-0.938l10.155-10.434
		c2.217,0.107,4.333,0.107,6.549,0l10.154,10.434c0.737,0.763,1.812,1.088,2.845,0.874c3.002-0.619,6.007-1.421,8.931-2.388
		c1.009-0.337,1.776-1.154,2.037-2.188l3.573-14.103c1.947-1.003,3.853-2.103,5.689-3.287l13.983,3.944
		c1.02,0.291,2.116,0.037,2.907-0.665c2.295-2.045,4.499-4.253,6.547-6.549c0.708-0.79,0.96-1.888,0.667-2.907l-3.946-13.982
		c1.183-1.835,2.284-3.74,3.288-5.689l14.102-3.572c1.033-0.261,1.853-1.032,2.19-2.038c0.964-2.919,1.769-5.924,2.388-8.925
		c0.212-1.038-0.122-2.112-0.875-2.85L632.827,450.055z M636.368,468.433l-13.807,3.498c-0.883,0.229-1.625,0.827-2.025,1.648
		c-1.258,2.578-2.706,5.089-4.309,7.444c-0.509,0.758-0.661,1.703-0.412,2.581l3.869,13.691c-1.181,1.256-2.405,2.484-3.658,3.657
		l-13.69-3.866c-0.88-0.249-1.827-0.097-2.582,0.411c-2.365,1.604-4.868,3.047-7.445,4.309c-0.82,0.396-1.419,1.138-1.647,2.025
		l-3.501,13.807c-1.643,0.502-3.307,0.946-4.978,1.331l-9.942-10.216c-0.637-0.653-1.523-0.993-2.437-0.931
		c-2.917,0.2-5.675,0.2-8.591,0c-0.909-0.063-1.802,0.282-2.436,0.931l-9.944,10.216c-1.669-0.385-3.334-0.829-4.978-1.331
		l-3.5-13.807c-0.229-0.883-0.826-1.626-1.65-2.025c-2.575-1.257-5.081-2.705-7.443-4.309c-0.757-0.508-1.701-0.661-2.582-0.411
		l-13.689,3.866c-1.254-1.173-2.483-2.401-3.657-3.657l3.867-13.691c0.249-0.878,0.097-1.827-0.416-2.581
		c-1.6-2.364-3.044-4.868-4.305-7.444c-0.397-0.82-1.138-1.419-2.025-1.648l-13.806-3.498c-0.501-1.645-0.946-3.307-1.33-4.979
		l10.215-9.942c0.654-0.636,0.995-1.527,0.926-2.438c-0.096-1.455-0.147-2.901-0.147-4.295c0-1.393,0.052-2.836,0.147-4.294
		c0.069-0.91-0.277-1.803-0.926-2.438l-10.215-9.943c0.384-1.669,0.829-3.336,1.33-4.978l13.806-3.499
		c0.883-0.229,1.625-0.827,2.025-1.647c1.256-2.573,2.705-5.08,4.305-7.444c0.513-0.758,0.665-1.702,0.416-2.581l-3.867-13.691
		c1.174-1.255,2.402-2.482,3.66-3.659l13.687,3.868c0.881,0.249,1.826,0.097,2.582-0.411c2.36-1.603,4.868-3.046,7.444-4.31
		c0.821-0.397,1.423-1.138,1.649-2.025l3.5-13.806c1.643-0.501,3.307-0.945,4.978-1.331l9.942,10.216
		c0.636,0.652,1.517,0.993,2.438,0.926c2.923-0.196,5.669-0.196,8.59,0c0.911,0.067,1.801-0.277,2.438-0.926l9.942-10.216
		c1.672,0.386,3.335,0.83,4.978,1.331l3.501,13.806c0.223,0.884,0.826,1.626,1.646,2.025c2.578,1.259,5.083,2.707,7.446,4.31
		c0.756,0.508,1.702,0.661,2.582,0.411l13.69-3.868c1.255,1.182,2.479,2.404,3.658,3.659l-3.869,13.691
		c-0.248,0.879-0.097,1.827,0.412,2.581c1.603,2.361,3.046,4.866,4.309,7.444c0.397,0.82,1.138,1.418,2.025,1.647l13.807,3.499
		c0.5,1.64,0.945,3.306,1.331,4.979l-10.217,9.942c-0.655,0.636-0.995,1.528-0.932,2.438c0.101,1.455,0.152,2.901,0.152,4.294
		c0,1.391-0.052,2.837-0.152,4.295c-0.063,0.911,0.283,1.803,0.932,2.438l10.217,9.942
		C637.313,465.126,636.868,466.79,636.368,468.433"/>
	<g display="inline" enable-background="new    ">
		<path d="M549.77,558.971l-5.589-17.124h2.389l2.667,8.438c0.736,2.309,1.372,4.396,1.829,6.402h0.052
			c0.483-1.984,1.19-4.141,1.957-6.377l2.895-8.458h2.36l-6.12,17.119H549.77z"/>
		<path d="M562.193,543.218c0.027,0.766-0.535,1.372-1.424,1.372c-0.784,0-1.348-0.607-1.348-1.372c0-0.786,0.586-1.397,1.398-1.397
			C561.658,541.82,562.193,542.432,562.193,543.218z M559.702,558.971v-12.297h2.235v12.297H559.702z"/>
		<path d="M574.412,558.513c-0.585,0.305-1.878,0.716-3.531,0.716c-3.71,0-6.12-2.516-6.12-6.276c0-3.783,2.591-6.529,6.605-6.529
			c1.319,0,2.489,0.33,3.097,0.636l-0.509,1.727c-0.533-0.305-1.368-0.586-2.588-0.586c-2.824,0-4.349,2.085-4.349,4.647
			c0,2.847,1.83,4.6,4.27,4.6c1.271,0,2.108-0.33,2.744-0.608L574.412,558.513z"/>
		<path d="M579.236,552.313h0.051c0.306-0.432,0.737-0.965,1.093-1.397l3.608-4.242h2.692l-4.751,5.053l5.412,7.241h-2.719
			l-4.243-5.897l-1.144,1.27v4.631h-2.206v-18.04h2.206V552.313L579.236,552.313z"/>
		<path d="M590.083,546.674l2.692,7.266c0.28,0.813,0.585,1.778,0.788,2.513h0.05c0.229-0.732,0.483-1.673,0.789-2.565l2.438-7.216
			h2.362l-3.355,8.762c-1.602,4.218-2.694,6.378-4.218,7.701c-1.09,0.967-2.187,1.348-2.742,1.449l-0.559-1.879
			c0.559-0.179,1.298-0.533,1.956-1.091c0.609-0.482,1.373-1.348,1.88-2.489c0.101-0.23,0.179-0.406,0.179-0.533
			c0-0.132-0.05-0.305-0.151-0.584l-4.549-11.332L590.083,546.674L590.083,546.674z"/>
	</g>
</g>
<g id="Node-You">
	<path d="M115.212,424.382l0.064-16.199c0-5.559-3.445-11.119-7.699-12.417c-1.046-0.324-2.058-0.354-2.97-0.128l-8.231,2.033v2.962
		l-6.73,3.188l0.002,3.222l21.543-6.673c0,0,0.269-0.102,0.469,0.08c0.428,0.406,0.601,0.661,0.746,1.213
		c0,0,0.144,0.364-0.179,0.449l-22.58,7.037l0.001,3.134l23.545-7.835c0,0,0.3-0.187,0.5,0.18c0.457,1.021,0.78,2.123,0.641,3.881
		c0,0-0.045,0.698-0.46,0.797l-24.215,8.08v8.604h-0.012c0.012,0.611-0.367,1.184-0.974,1.367c-0.734,0.239-1.518-0.185-1.749-0.94
		c-0.04-0.155-0.055-0.311-0.053-0.463h-0.001l-0.011-7.646h-0.001l-0.002-5.093h0.003l-0.001-3.197l-0.002,0.008l-0.008-2.117
		h0.012l-0.012-12.146l2.796-0.864l6.731-1.139l-0.826-0.162l-6.731,1.133l-2.791,0.865v4.63l-16.54,4.1
		c-2.716,0.525-4.801,2.907-5.545,6.394c-0.642-0.089-1.281-0.099-1.905-0.029c-0.277,0.033-0.546,0.101-0.809,0.2l-1.465,0.767
		c-0.032,0.024-0.059,0.046-0.086,0.063c-0.265,0.249-1.13,0.845-1.72,2.142l0.004,0.003c-0.785,1.843-0.882,4.541,0.317,7.863
		l5.297,11.795l18.197,5.565l3.546-1.562v50.044c-1.985-1.497-4.923-1.002-4.923-1.002s3.939,0.621,4.923,2.927v0.974
		c-0.395-0.557-0.874-1.086-1.482-1.549c-2.706-2.03-6.374,0.295-6.374,0.295s4.48-1.107,6.041,1.229
		c0.202,0.309,0.39,0.621,0.559,0.931c-0.719-0.528-1.594-1.003-2.627-1.243c-3.294-0.758-5.708,2.853-5.708,2.853
		s3.65-2.825,6.021-1.317c0.012,0.003,0.02,0.012,0.033,0.022c-1.749,0.202-2.957,1.989-2.957,1.989s2.492-1.93,4.11-0.9
		c0.169,0.105,0.323,0.216,0.473,0.315c1.293-0.276,3.014-0.389,4.466,0.395c0.592,0.32,1.058,0.689,1.443,1.071
		c0.04-0.131,0.104-0.261,0.159-0.396c-0.693-1.878-5.035-2.36-5.035-2.36s3.903-0.479,5.74,1.322
		c1.793-1.929,5.849-1.432,5.849-1.432s-4.526,0.506-5.085,2.47c0.057,0.123,0.105,0.235,0.15,0.345
		c0.393-0.403,0.878-0.792,1.495-1.134c1.43-0.767,3.124-0.661,4.412-0.396c0.153-0.116,0.311-0.239,0.491-0.355
		c1.619-1.028,4.107,0.903,4.107,0.903s-1.201-1.783-2.955-1.993c0.013-0.003,0.018-0.019,0.031-0.021
		c2.373-1.503,6.019,1.321,6.019,1.321s-2.409-3.614-5.702-2.856c-1.033,0.24-1.909,0.714-2.63,1.244
		c0.172-0.313,0.357-0.62,0.559-0.934c1.563-2.333,6.037-1.227,6.037-1.227s-3.664-2.326-6.366-0.299
		c-0.567,0.424-1.028,0.926-1.405,1.434v-1.02c1.095-2.172,4.837-2.763,4.837-2.763s-2.859-0.479-4.837,0.938v-54.171
		L115.212,424.382z M80.451,434.751c-0.184,0.067-0.391,0.014-0.437-0.08c-0.006-0.025-5.571-12.622-5.583-12.644
		c-1.989-5.467-6.994-10.085-11.735-10.65c-0.097,0-0.263-0.185-0.138-0.354c0.126-0.168,0.247-0.178,0.349-0.178
		c0.006,0,0.016,0.008,0.023,0.008c4.879,0.289,10.012,5.186,12.073,10.838c0.01,0.021,5.572,12.622,5.579,12.645H80.58
		C80.624,434.439,80.603,434.696,80.451,434.751 M80.152,411.771c-0.195-0.45-0.344-0.716-0.56-1.086
		c-0.24-0.458,0.218-0.594,0.218-0.594l3.782-1.173c0.153,0.18,0.492,0.655,0.972,1.819l-3.899,1.217
		C80.279,412.063,80.152,411.771,80.152,411.771 M82.456,419.775c-0.675,0.289-0.621-0.56-0.621-0.56
		c0-1.221-0.143-2.444-0.399-3.627c-0.12-0.557,0.433-0.709,0.433-0.709l3.65-1.216c0.391,1.668,0.485,3.149,0.508,4.05v0.873
		L82.456,419.775z M93.747,485.609c0,0.364-0.295,0.659-0.659,0.659c-0.37,0-0.665-0.29-0.665-0.659v-41.128
		c0-0.363,0.295-0.665,0.665-0.665c0.364,0,0.659,0.302,0.659,0.665V485.609z"/>
	<g>
		<g>
			<path d="M7.678,447.577c-19.119,0-40.745,14.858-40.745,40.746c0,0.443,0.009,0.885,0.023,1.327
				c12.354,5.825,26.156,9.083,40.721,9.083c14.563,0,28.367-3.258,40.721-9.083c0.014-0.442,0.023-0.884,0.023-1.327
				C48.421,462.436,26.798,447.577,7.678,447.577"/>
			<path fill="#FFFFFF" d="M-1.242,457.596c0,4.926,3.993,8.92,8.919,8.92c4.925,0,8.918-3.994,8.918-8.92H-1.242z"/>
			<path fill="#FFFFFF" d="M-19.927,494.558c0.851-6.21,6.058-20.762,6.058-20.762s-7.877,12.886-9.367,19.699
				C-22.142,493.868-21.039,494.224-19.927,494.558 M29.225,473.796c0,0,5.207,14.552,6.058,20.762
				c1.113-0.334,2.215-0.689,3.309-1.063C37.102,486.686,29.225,473.796,29.225,473.796"/>
			<path d="M32.812,385.147c4.457-2.302,6.462-6.043,6.462-6.043s-3.286-0.508-7.347,1.157c0.015-0.049,0.031-0.098,0.044-0.149
				c1.3-4.843-1.317-9.175-1.317-9.175c0,0.002-4.374,2.233-5.729,7.287c-0.285,1.061-0.264,2.039-0.085,2.914
				c-5.288-4.076-10.408-6.058-20.176-6.058c-23.616,0-38.955,19.778-38.955,43.396c0,23.623,19.146,40.226,42.762,40.226
				c23.617,0,42.762-16.603,42.762-40.226C51.233,404.053,45.796,390.733,32.812,385.147"/>
			<path fill="#FFFFFF" d="M-25.495,421.299c-2.779,0.302-4.857,1.642-4.857,4.604c0,3.021,2.161,6.719,5.021,7.545
				c-0.408-2.116-0.623-4.3-0.623-6.535C-25.954,425.005-25.797,423.128-25.495,421.299 M42.438,421.299
				c0.3,1.825,0.458,3.706,0.458,5.618c0,2.235-0.214,4.418-0.622,6.535c2.86-0.824,5.021-4.524,5.021-7.545
				C47.294,422.94,45.215,421.606,42.438,421.299"/>
			<path fill="#FFFFFF" d="M42.45,421.286c-16.85-1.874-25.037-15.699-25.037-15.699c-9.288,12.674-36.166,10.941-43.285,18.928
				c-0.001-0.003-0.002-0.006-0.004-0.01c-0.051,0.768-0.08,1.536-0.08,2.315c0,19.014,15.413,34.425,34.425,34.425
				c19.013,0,34.425-15.411,34.425-34.425C42.896,424.937,42.743,423.088,42.45,421.286"/>
			<path d="M-5.171,429.046c0,2.969-2.408,5.37-5.376,5.37c-2.969,0-5.377-2.406-5.377-5.37c0-2.965,2.408-5.377,5.377-5.377
				C-7.579,423.669-5.171,426.076-5.171,429.046"/>
			<path d="M32.866,429.046c0,2.969-2.408,5.37-5.376,5.37s-5.376-2.406-5.376-5.37c0-2.965,2.408-5.377,5.376-5.377
				S32.866,426.076,32.866,429.046"/>
			<path d="M8.426,451.236c-3.077,0-5.969-1.191-8.143-3.367c-0.297-0.298-0.297-0.779,0-1.082c0.297-0.292,0.78-0.292,1.076,0
				c1.887,1.887,4.397,2.927,7.065,2.927c2.668,0,5.178-1.035,7.066-2.927c0.295-0.292,0.778-0.292,1.075,0
				c0.298,0.298,0.298,0.779,0,1.082C14.392,450.038,11.501,451.236,8.426,451.236"/>
		</g>
	</g>
	<g>
		<g>
			<polyline fill="none" stroke="#000000" stroke-width="5.0805" stroke-miterlimit="10" points="141.453,509.436 141.453,511.977 
				137.643,511.977 			"/>
			
				<line fill="none" stroke="#000000" stroke-width="5.0805" stroke-miterlimit="10" stroke-dasharray="6.3506,6.3506" x1="131.292" y1="511.977" x2="-55.414" y2="511.977"/>
			<polyline fill="none" stroke="#000000" stroke-width="5.0805" stroke-miterlimit="10" points="-59.225,511.977 -61.765,511.977 
				-61.765,509.436 			"/>
			
				<line fill="none" stroke="#000000" stroke-width="5.0805" stroke-miterlimit="10" stroke-dasharray="6.3506,6.3506" x1="-61.765" y1="503.086" x2="-61.765" y2="369.724"/>
			<polyline fill="none" stroke="#000000" stroke-width="5.0805" stroke-miterlimit="10" points="-61.765,367.184 -61.765,363.373 
				-59.225,363.373 			"/>
			
				<line fill="none" stroke="#000000" stroke-width="5.0805" stroke-miterlimit="10" stroke-dasharray="6.3506,6.3506" x1="-52.874" y1="363.373" x2="135.103" y2="363.373"/>
			<polyline fill="none" stroke="#000000" stroke-width="5.0805" stroke-miterlimit="10" points="137.643,363.373 141.453,363.373 
				141.453,367.184 			"/>
			
				<line fill="none" stroke="#000000" stroke-width="5.0805" stroke-miterlimit="10" stroke-dasharray="6.3506,6.3506" x1="141.453" y1="372.264" x2="141.453" y2="505.626"/>
		</g>
	</g>
	<g enable-background="new    ">
		<path d="M27.054,539.919v-7.268l-5.412-9.86h2.515l2.415,4.729c0.661,1.295,1.169,2.337,1.702,3.527h0.051
			c0.482-1.117,1.066-2.236,1.727-3.527l2.464-4.729h2.515l-5.742,9.832v7.296H27.054z"/>
		<path d="M46.107,533.669c0,4.548-3.15,6.529-6.124,6.529c-3.329,0-5.895-2.438-5.895-6.323c0-4.117,2.694-6.534,6.098-6.534
			C43.718,527.342,46.107,529.908,46.107,533.669z M36.35,533.795c0,2.694,1.549,4.729,3.734,4.729c2.135,0,3.735-2.007,3.735-4.78
			c0-2.082-1.041-4.726-3.684-4.726C37.493,529.019,36.35,531.458,36.35,533.795z"/>
		<path d="M59.213,536.564c0,1.271,0.025,2.39,0.102,3.354h-1.982l-0.127-2.007h-0.051c-0.584,0.991-1.879,2.286-4.065,2.286
			c-1.932,0-4.244-1.067-4.244-5.385v-7.188h2.236v6.805c0,2.338,0.711,3.913,2.744,3.913c1.499,0,2.541-1.042,2.947-2.033
			c0.127-0.331,0.203-0.736,0.203-1.144v-7.541h2.236v8.94h0.002V536.564z"/>
	</g>
</g>
<g id="Path-RequestLetter">
	<g>
		<line fill="none" stroke="#000000" stroke-width="2" stroke-miterlimit="10" x1="11.902" y1="249.063" x2="11.902" y2="376.074"/>
		<g>
			<polygon points="5.569,251.604 11.902,240.636 18.234,251.604 			"/>
		</g>
	</g>
</g>
<g id="Path-ResolveAddress" display="none">
	<g display="inline">
		<line fill="none" stroke="#000000" stroke-width="2" stroke-miterlimit="10" x1="85.568" y1="83.988" x2="204.119" y2="56.506"/>
		<g>
			<polygon points="203.745,63.094 212.999,54.447 200.884,50.754 			"/>
		</g>
	</g>
</g>
<g id="Path-FoundSam" display="none">
	<g display="inline">
		<line fill="none" stroke="#000000" stroke-width="2" stroke-miterlimit="10" x1="719.782" y1="28.094" x2="933.655" y2="19.754"/>
		<g>
			<polygon points="932.05,26.156 942.763,19.4 931.557,13.499 			"/>
		</g>
	</g>
</g>
<g id="Path-ReturnFromSam" display="none">
	<g display="inline">
		
			<line fill="none" stroke="#000000" stroke-width="2" stroke-miterlimit="10" x1="929.352" y1="83.525" x2="114.732" y2="196.792"/>
		<g>
			<polygon points="115.696,190.264 105.705,198.046 117.44,202.809 			"/>
		</g>
	</g>
</g>
<g id="Path-MailmanToSam" display="none">
	<g display="inline">
		
			<line fill="none" stroke="#000000" stroke-width="2.5402" stroke-miterlimit="10" x1="212.999" y1="54.447" x2="214.268" y2="54.381"/>
		
			<line fill="none" stroke="#000000" stroke-width="2" stroke-miterlimit="10" stroke-dasharray="2.5373,2.5373" x1="216.802" y1="54.25" x2="717.247" y2="28.226"/>
		
			<line fill="none" stroke="#000000" stroke-width="2.5402" stroke-miterlimit="10" x1="718.514" y1="28.16" x2="719.782" y2="28.094"/>
	</g>
</g>
<g id="Path-VickyToSam" display="none">
	<g display="inline">
		
			<line fill="none" stroke="#000000" stroke-width="2" stroke-linejoin="round" x1="590.717" y1="370.538" x2="928.917" y2="101.767"/>
		<g>
			<polygon points="931.406,107.877 936.053,96.096 923.526,97.961 			"/>
		</g>
	</g>
</g>
<g id="Path-ReturnFromMailman" display="none">
	<g display="inline">
		<line fill="none" stroke="#000000" stroke-width="2" stroke-miterlimit="10" x1="88.108" y1="240.172" x2="88.108" y2="384.965"/>
		<g>
			<polygon points="81.9,383.695 88.108,394.446 94.317,383.695 			"/>
		</g>
	</g>
</g>
<g id="Path-SamToVicky" display="none">
	<g display="inline">
		
			<line fill="none" stroke="#000000" stroke-width="2" stroke-linejoin="round" x1="946.739" y1="107.827" x2="625.848" y2="380.924"/>
		<g>
			<polygon points="623.154,374.9 618.906,386.832 631.363,384.546 			"/>
		</g>
	</g>
</g>
<g id="EncryptedPath-VickyToMailman" display="none">
	<g display="inline">
		<polyline fill="none" stroke="#000000" stroke-width="5" stroke-linejoin="round" points="491.451,419.533 366.686,217.31 
			114.578,224.053 		"/>
		<g>
			<polygon points="116.262,217.671 105.467,224.296 116.6,230.334 			"/>
		</g>
	</g>
</g>
<g id="EncryptedPath-MailmanToVicky" display="none">
	<g display="inline">
		
			<line fill="none" stroke="#000000" stroke-width="5.0805" stroke-linejoin="round" x1="212.999" y1="54.447" x2="213.989" y2="55.242"/>
		
			<line fill="none" stroke="#000000" stroke-width="5.0805" stroke-linejoin="round" stroke-dasharray="2.5245,2.5245" x1="215.957" y1="56.824" x2="466.895" y2="258.386"/>
		
			<line fill="none" stroke="#000000" stroke-width="5.0805" stroke-linejoin="round" x1="467.88" y1="259.177" x2="468.871" y2="259.972"/>
	</g>
</g>
<g id="EncryptedPath-ReturnFromMailman" display="none">
	<g display="inline">
		<line fill="none" stroke="#000000" stroke-width="5" stroke-miterlimit="10" x1="88.108" y1="240.172" x2="88.108" y2="384.965"/>
		<g>
			<polygon points="81.776,382.425 88.108,393.394 94.441,382.425 			"/>
		</g>
	</g>
</g>
<g id="EncryptedPath-FoundVicky" display="none">
	<g display="inline">
		
			<line fill="none" stroke="#000000" stroke-width="5" stroke-miterlimit="10" x1="468.871" y1="259.972" x2="509.168" y2="378.204"/>
		<g>
			<polygon points="502.576,378.494 512.109,386.832 514.565,374.407 			"/>
		</g>
	</g>
</g>
<g id="EncryptedPath-FindAddress" display="none">
	<g display="inline">
		
			<line fill="none" stroke="#000000" stroke-width="5" stroke-miterlimit="10" x1="109.931" y1="107.827" x2="204.905" y2="58.639"/>
		<g>
			<polygon points="206.172,65.115 212.999,54.447 200.347,53.867 			"/>
		</g>
	</g>
</g>
<g id="EncryptedPath-RequestLetter" display="none">
	<g display="inline">
		<line fill="none" stroke="#000000" stroke-width="5" stroke-miterlimit="10" x1="11.902" y1="249.063" x2="11.902" y2="376.074"/>
		<g>
			<polygon points="5.569,251.604 11.902,240.636 18.234,251.604 			"/>
		</g>
	</g>
</g>
<rect x="-160.413" y="-79.413" fill="none" stroke="#000000" stroke-width="1.1748" stroke-miterlimit="10" width="1280" height="720"/>
</svg>
