<?xml version="1.0" encoding="utf-8"?>
<!-- Generator: Adobe Illustrator 16.0.0, SVG Export Plug-In . SVG Version: 6.00 Build 0)  -->
<!DOCTYPE svg PUBLIC "-//W3C//DTD SVG 1.1//EN" "http://www.w3.org/Graphics/SVG/1.1/DTD/svg11.dtd">
<svg version="1.1" id="vpn-explanation" xmlns="http://www.w3.org/2000/svg" xmlns:xlink="http://www.w3.org/1999/xlink" x="0px"
	 y="0px" width="1281.174px" height="721.174px" viewBox="-160.587 -80.587 1281.174 721.174"
	 enable-background="new -160.587 -80.587 1281.174 721.174" xml:space="preserve">
<g id="Node-Cloud">
	<path fill="#CACACA" d="M782.673,210.73c19.658-49.606-7.881-104.557-61.531-122.742c-24.682-8.365-50.547-7.398-73.25,0.825
		c-4.223-27.01-23.923-51.066-53.569-61.105c-33.515-11.37-69.775-1.405-91.655,22.333c-15.207-17.69-35.688-31.855-60.3-40.2
		c-71.352-24.189-150.401,9.698-176.554,75.682c-0.963,2.454-1.83,4.909-2.622,7.375c-33.093-7.083-67.479,9.524-79.476,39.776
		c-9.701,24.475-1.979,50.916,17.311,67.732c-15.114,50.642,14.016,104.359,68.304,122.758c31.616,10.717,65.077,7.153,92.249-7.064
		c7.659,4.958,16.035,9.163,25.212,12.279c36.564,12.393,75.587,5.695,104.491-14.518c12.904,15.85,30.646,28.606,52.293,35.938
		c59.709,20.236,125.869-8.12,147.751-63.34c1.777-4.483,3.078-8.999,4.172-13.525C733.822,269.475,768.539,246.388,782.673,210.73
		L782.673,210.73z"/>
	<g enable-background="new    ">
		<path d="M353.86,26.563V44.37h-2.298V26.563H353.86z"/>
		<path d="M358.06,35.043c0-1.32-0.028-2.403-0.106-3.46h2.06l0.131,2.113h0.053c0.635-1.215,2.12-2.403,4.229-2.403
			c1.77,0,4.518,1.058,4.518,5.442v7.636h-2.324v-7.372c0-2.062-0.766-3.777-2.96-3.777c-1.526,0-2.722,1.082-3.111,2.377
			c-0.106,0.292-0.159,0.688-0.159,1.083v7.688h-2.324L358.06,35.043L358.06,35.043z"/>
		<path d="M375.416,27.91v3.673h3.329v1.77h-3.329v6.896c0,1.587,0.449,2.484,1.744,2.484c0.608,0,1.057-0.079,1.348-0.158
			l0.106,1.743c-0.449,0.185-1.163,0.317-2.062,0.317c-1.083,0-1.955-0.344-2.51-0.978c-0.661-0.688-0.898-1.822-0.898-3.33v-6.975
			h-1.981v-1.77h1.981v-3.065L375.416,27.91z"/>
		<path d="M382.494,38.399c0.053,3.144,2.061,4.438,4.38,4.438c1.67,0,2.67-0.29,3.547-0.66l0.396,1.665
			c-0.819,0.37-2.221,0.793-4.256,0.793c-3.934,0-6.292-2.59-6.292-6.447s2.275-6.896,5.998-6.896c4.175,0,5.283,3.673,5.283,6.025
			c0,0.474-0.053,0.845-0.079,1.083L382.494,38.399L382.494,38.399z M389.31,36.735c0.028-1.479-0.607-3.777-3.219-3.777
			c-2.352,0-3.386,2.167-3.568,3.777H389.31z"/>
		<path d="M394.434,35.573c0-1.506-0.028-2.802-0.105-3.99h2.034l0.079,2.509h0.104c0.578-1.718,1.981-2.801,3.541-2.801
			c0.265,0,0.449,0.028,0.661,0.081v2.192c-0.237-0.053-0.47-0.08-0.792-0.08c-1.638,0-2.802,1.241-3.118,2.986
			c-0.053,0.316-0.104,0.688-0.104,1.083v6.818h-2.292L394.434,35.573L394.434,35.573z"/>
		<path d="M403.177,35.043c0-1.32-0.025-2.403-0.105-3.46h2.064l0.131,2.113h0.054c0.635-1.215,2.119-2.403,4.229-2.403
			c1.771,0,4.519,1.058,4.519,5.442v7.636h-2.324v-7.372c0-2.062-0.769-3.777-2.96-3.777c-1.532,0-2.721,1.082-3.111,2.377
			c-0.105,0.292-0.159,0.688-0.159,1.083v7.688h-2.326L403.177,35.043L403.177,35.043z"/>
		<path d="M419.132,38.399c0.053,3.144,2.065,4.438,4.387,4.438c1.664,0,2.668-0.29,3.541-0.66l0.402,1.665
			c-0.819,0.37-2.225,0.793-4.26,0.793c-3.935,0-6.288-2.59-6.288-6.447s2.271-6.896,5.998-6.896c4.175,0,5.283,3.673,5.283,6.025
			c0,0.474-0.054,0.845-0.08,1.083L419.132,38.399L419.132,38.399z M425.949,36.735c0.028-1.479-0.607-3.777-3.219-3.777
			c-2.353,0-3.387,2.167-3.568,3.777H425.949z"/>
		<path d="M433.873,27.91v3.673h3.33v1.77h-3.33v6.896c0,1.587,0.449,2.484,1.744,2.484c0.606,0,1.057-0.079,1.348-0.158
			l0.105,1.743c-0.449,0.185-1.162,0.317-2.062,0.317c-1.083,0-1.956-0.344-2.51-0.978c-0.66-0.688-0.897-1.822-0.897-3.33v-6.975
			h-1.98v-1.77h1.98v-3.065L433.873,27.91z"/>
	</g>
</g>
<g id="Node-YourPC">
	<path fill="#231F20" d="M116.674,461.832H68.736c-1.122,0-2.03,0.908-2.03,2.021v99.877c0,1.129,0.909,2.029,2.03,2.029h47.938
		c1.121,0,2.028-0.908,2.028-2.029v-99.873C118.702,462.742,117.792,461.832,116.674,461.832 M114.644,561.708H70.763V465.89h43.881
		V561.708z M109.49,526.953H75.918c-1.122,0-2.03,0.908-2.03,2.027v5.438c0,1.119,0.909,2.021,2.03,2.021h33.572
		c1.12,0,2.03-0.906,2.03-2.021v-5.438C111.521,527.861,110.61,526.953,109.49,526.953 M107.461,532.388H77.948v-1.379h29.514
		L107.461,532.388L107.461,532.388z M75.645,498.826h34.119c1.121,0,2.028-0.91,2.028-2.027V471.4c0-1.119-0.909-2.021-2.028-2.021
		H75.645c-1.121,0-2.03,0.908-2.03,2.021v25.398C73.615,497.917,74.524,498.826,75.645,498.826 M77.673,473.427h30.061v21.34H77.673
		V473.427z M109.49,502.972H75.918c-1.122,0-2.03,0.91-2.03,2.031v5.438c0,1.119,0.909,2.027,2.03,2.027h33.572
		c1.12,0,2.03-0.91,2.03-2.027v-5.438C111.521,503.882,110.61,502.972,109.49,502.972 M107.461,508.41H77.948v-1.377h29.514
		L107.461,508.41L107.461,508.41z M58.144,470.625h-91.355c-1.122,0-2.029,0.91-2.029,2.029v70.533c0,1.119,0.909,2.029,2.029,2.029
		H1.616l-0.987,11.027h-9.956c-1.123,0-2.03,0.91-2.03,2.029v5.463c0,1.129,0.907,2.029,2.03,2.029H34.26
		c1.121,0,2.028-0.906,2.028-2.029v-5.463c0-1.119-0.909-2.029-2.028-2.029h-9.958l-0.989-11.027h34.83
		c1.121,0,2.028-0.91,2.028-2.029v-70.533C60.172,471.535,59.265,470.625,58.144,470.625 M32.231,561.708H-7.3v-1.404h39.532
		L32.231,561.708L32.231,561.708z M4.705,556.246l0.991-11.027h13.546l0.989,11.027H4.705z M56.115,541.158H-31.18v-66.475h87.295
		V541.158L56.115,541.158z M-27.105,538.562h79.144c1.123,0,2.03-0.908,2.03-2.027v-57.646c0-1.129-0.907-2.027-2.03-2.027h-79.144
		c-1.12,0-2.03,0.906-2.03,2.027v57.646C-29.135,537.652-28.226,538.562-27.105,538.562 M-25.077,480.917h75.086v53.586h-75.086
		V480.917z"/>
	<g enable-background="new    ">
		<path d="M7.753,594.263v-7.557l-5.628-10.258H4.74l2.511,4.922c0.687,1.346,1.215,2.43,1.77,3.666h0.053
			c0.502-1.162,1.11-2.326,1.796-3.666l2.563-4.922h2.615l-5.972,10.225v7.584L7.753,594.263L7.753,594.263z"/>
		<path d="M27.566,587.763c0,4.73-3.275,6.791-6.367,6.791c-3.462,0-6.13-2.537-6.13-6.576c0-4.279,2.801-6.797,6.341-6.797
			C25.082,581.185,27.566,583.853,27.566,587.763z M17.42,587.896c0,2.803,1.611,4.922,3.883,4.922c2.22,0,3.884-2.088,3.884-4.975
			c0-2.166-1.083-4.914-3.832-4.914C18.61,582.929,17.42,585.466,17.42,587.896z"/>
		<path d="M41.197,590.775c0,1.32,0.027,2.484,0.106,3.488h-2.062l-0.132-2.088h-0.053c-0.607,1.031-1.955,2.377-4.228,2.377
			c-2.009,0-4.413-1.107-4.413-5.6v-7.471h2.325v7.072c0,2.432,0.739,4.068,2.854,4.068c1.559,0,2.642-1.082,3.065-2.113
			c0.131-0.344,0.211-0.766,0.211-1.188v-7.844h2.325v9.299L41.197,590.775L41.197,590.775z"/>
		<path d="M45.051,585.466c0-1.508-0.027-2.803-0.106-3.99h2.034l0.079,2.504h0.106c0.581-1.719,1.981-2.803,3.541-2.803
			c0.265,0,0.45,0.029,0.66,0.084v2.193c-0.237-0.053-0.475-0.084-0.792-0.084c-1.638,0-2.802,1.242-3.118,2.986
			c-0.053,0.316-0.106,0.688-0.106,1.084v6.814h-2.298V585.466L45.051,585.466z"/>
		<path d="M59.368,576.666c1.11-0.184,2.563-0.342,4.411-0.342c2.273,0,3.938,0.527,4.995,1.479
			c0.978,0.846,1.559,2.141,1.559,3.727c0,1.609-0.476,2.879-1.375,3.805c-1.216,1.291-3.197,1.951-5.443,1.951
			c-0.687,0-1.321-0.025-1.849-0.158v7.135h-2.298V576.666L59.368,576.666z M61.667,585.253c0.501,0.139,1.136,0.191,1.902,0.191
			c2.773,0,4.464-1.35,4.464-3.807c0-2.352-1.664-3.492-4.202-3.492c-1.003,0-1.77,0.084-2.166,0.191L61.667,585.253L61.667,585.253
			z"/>
		<path d="M85.865,593.681c-0.845,0.424-2.536,0.854-4.703,0.854c-5.02,0-8.798-3.17-8.798-9.01c0-5.574,3.778-9.354,9.301-9.354
			c2.219,0,3.621,0.477,4.228,0.799l-0.555,1.875c-0.872-0.424-2.115-0.744-3.594-0.744c-4.174,0-6.948,2.67-6.948,7.35
			c0,4.357,2.509,7.158,6.843,7.158c1.399,0,2.827-0.289,3.751-0.744L85.865,593.681z"/>
	</g>
</g>
<g id="Node-ISP">
	<path fill="#231F20" d="M123.019,233.286H-28.343c-1.727,0-3.125,0.763-3.125,1.705v72.222c0,0.941,1.399,1.705,3.125,1.705
		h151.361c1.727,0,3.127-0.764,3.127-1.705V234.99C126.146,234.048,124.745,233.286,123.019,233.286 M119.894,302.383H-25.218
		v-62.562h145.111L119.894,302.383L119.894,302.383z"/>
	<g enable-background="new    ">
		<path d="M35.123,261.182v17.564h-2.266v-17.564H35.123z"/>
		<path d="M38.768,275.983c1.017,0.626,2.501,1.146,4.065,1.146c2.32,0,3.675-1.225,3.675-2.997c0-1.642-0.938-2.58-3.31-3.492
			c-2.867-1.017-4.639-2.503-4.639-4.979c0-2.735,2.267-4.768,5.681-4.768c1.798,0,3.102,0.416,3.884,0.859l-0.626,1.849
			c-0.573-0.312-1.746-0.834-3.335-0.834c-2.397,0-3.309,1.434-3.309,2.632c0,1.642,1.069,2.449,3.493,3.387
			c2.97,1.146,4.482,2.581,4.482,5.16c0,2.71-2.006,5.055-6.149,5.055c-1.694,0-3.544-0.495-4.483-1.122L38.768,275.983z"/>
		<path d="M51.923,261.392c1.094-0.184,2.528-0.339,4.352-0.339c2.241,0,3.882,0.521,4.925,1.458
			c0.964,0.834,1.537,2.111,1.537,3.674c0,1.589-0.469,2.839-1.355,3.752c-1.198,1.277-3.152,1.928-5.368,1.928
			c-0.677,0-1.303-0.026-1.824-0.156v7.036h-2.266L51.923,261.392L51.923,261.392z M54.189,269.861
			c0.496,0.13,1.122,0.182,1.875,0.182c2.737,0,4.404-1.328,4.404-3.752c0-2.319-1.642-3.439-4.143-3.439
			c-0.991,0-1.747,0.08-2.137,0.184L54.189,269.861L54.189,269.861z"/>
	</g>
</g>
<g id="Node-VPN">
	<g>
		<g>
			<polyline fill="none" stroke="#000000" stroke-width="1.3208" stroke-miterlimit="10" points="639.468,593.162 639.468,594.482 
				638.146,594.482 			"/>
			
				<line fill="none" stroke="#000000" stroke-width="1.3208" stroke-miterlimit="10" stroke-dasharray="2.6416,2.6416" x1="634.845" y1="594.482" x2="477.67" y2="594.482"/>
			<polyline fill="none" stroke="#000000" stroke-width="1.3208" stroke-miterlimit="10" points="477.01,594.482 475.689,594.482 
				475.689,593.162 			"/>
			
				<line fill="none" stroke="#000000" stroke-width="1.3208" stroke-miterlimit="10" stroke-dasharray="2.6416,2.6416" x1="475.689" y1="591.181" x2="475.689" y2="449.855"/>
			<polyline fill="none" stroke="#000000" stroke-width="1.3208" stroke-miterlimit="10" points="475.689,449.195 475.689,447.875 
				477.01,447.875 			"/>
			
				<line fill="none" stroke="#000000" stroke-width="1.3208" stroke-miterlimit="10" stroke-dasharray="2.6416,2.6416" x1="478.991" y1="447.875" x2="636.166" y2="447.875"/>
			<polyline fill="none" stroke="#000000" stroke-width="1.3208" stroke-miterlimit="10" points="638.146,447.875 639.468,447.875 
				639.468,449.195 			"/>
			
				<line fill="none" stroke="#000000" stroke-width="1.3208" stroke-miterlimit="10" stroke-dasharray="2.6416,2.6416" x1="639.468" y1="451.175" x2="639.468" y2="592.501"/>
		</g>
	</g>
	<path fill="#231F20" d="M596.731,481.826h22.081c1.054,0,1.898-0.855,1.898-1.904v-14.775c0-1.053-0.851-1.902-1.898-1.902H596.73
		c-1.053,0-1.897,0.854-1.897,1.902v14.775C594.825,480.974,595.679,481.826,596.731,481.826 M598.633,467.048h18.271v10.98h-18.271
		V467.048z M563.34,533.16l-0.145-1.953c-0.456-0.316-0.941-0.598-1.447-0.84l-1.762,0.852c-0.261-0.084-0.526-0.146-0.799-0.207
		l-1.102-1.623c-0.276-0.021-0.555-0.025-0.839-0.025c-0.281,0-0.557,0.012-0.836,0.025l-1.099,1.623
		c-0.27,0.061-0.536,0.131-0.801,0.207l-1.759-0.852c-0.509,0.242-0.991,0.521-1.45,0.84l-0.145,1.953
		c-0.196,0.186-0.396,0.379-0.578,0.578l-1.954,0.145c-0.307,0.457-0.588,0.941-0.838,1.447l0.854,1.762
		c-0.084,0.262-0.153,0.527-0.214,0.799l-1.623,1.102c-0.021,0.275-0.025,0.555-0.025,0.838c0,0.281,0.013,0.561,0.025,0.836
		l1.623,1.1c0.061,0.271,0.133,0.537,0.214,0.801l-0.854,1.762c0.249,0.506,0.522,0.988,0.838,1.447l1.954,0.145
		c0.188,0.195,0.38,0.396,0.578,0.576l0.145,1.955c0.459,0.309,0.941,0.586,1.45,0.838l1.759-0.855
		c0.265,0.084,0.531,0.156,0.801,0.217l1.099,1.621c0.279,0.023,0.555,0.027,0.836,0.027c0.284,0,0.563-0.012,0.839-0.027
		l1.102-1.621c0.271-0.061,0.536-0.133,0.799-0.217l1.762,0.855c0.506-0.25,0.991-0.525,1.447-0.838l0.145-1.955
		c0.196-0.186,0.397-0.377,0.578-0.576l1.954-0.145c0.307-0.459,0.599-0.941,0.839-1.447l-0.854-1.762
		c0.084-0.264,0.151-0.529,0.212-0.801l1.62-1.1c0.022-0.275,0.025-0.555,0.025-0.836c0-0.283-0.01-0.563-0.025-0.838l-1.62-1.102
		c-0.061-0.271-0.136-0.537-0.212-0.799l0.854-1.762c-0.24-0.506-0.523-0.99-0.839-1.447l-1.954-0.145
		C563.737,533.539,563.544,533.345,563.34,533.16 M557.239,543.533c-2.119,0-3.836-1.719-3.836-3.834
		c0-2.119,1.718-3.828,3.836-3.828c2.116,0,3.835,1.717,3.835,3.828C561.074,541.814,559.357,543.533,557.239,543.533
		 M596.731,515.164h22.081c1.054,0,1.898-0.855,1.898-1.904v-14.775c0-1.051-0.851-1.902-1.898-1.902H596.73
		c-1.053,0-1.897,0.854-1.897,1.902v14.775C594.825,514.31,595.679,515.164,596.731,515.164 M598.633,500.384h18.271v10.98h-18.271
		V500.384z M586.655,474.75h5.564c1.061,0,1.905-0.854,1.905-1.898v-7.699c0-1.053-0.853-1.902-1.905-1.902h-5.564
		c-1.05,0-1.898,0.854-1.898,1.902v7.699C584.754,473.896,585.605,474.75,586.655,474.75 M588.56,467.048h1.76v3.895h-1.76V467.048z
		 M586.655,508.085h5.564c1.061,0,1.905-0.854,1.905-1.898v-7.699c0-1.051-0.853-1.902-1.905-1.902h-5.564
		c-1.05,0-1.898,0.854-1.898,1.902v7.699C584.754,507.232,585.605,508.085,586.655,508.085 M588.56,500.384h1.76v3.896h-1.76
		V500.384z M496.332,548.5h22.076c1.053,0,1.904-0.854,1.904-1.9v-14.775c0-1.051-0.854-1.898-1.904-1.898h-22.076
		c-1.053,0-1.904,0.854-1.904,1.898v14.775C494.428,547.644,495.279,548.5,496.332,548.5 M498.235,533.72h18.27v10.973h-18.27
		V533.72z M522.918,541.419h5.564c1.053,0,1.902-0.854,1.902-1.902v-7.699c0-1.051-0.854-1.898-1.902-1.898h-5.564
		c-1.053,0-1.898,0.854-1.898,1.898v7.699C521.014,540.57,521.865,541.419,522.918,541.419 M524.821,533.72h1.757v3.895h-1.757
		V533.72z M624.703,457.345h-45.405c-1.054,0-1.903,0.854-1.903,1.902v11.693h-4.353c-0.802-8.006-7.579-14.277-15.79-14.277
		c-8.214,0-14.987,6.271-15.789,14.277h-4.354v-11.693c0-1.051-0.854-1.902-1.903-1.902h-44.771c-1.051,0-1.902,0.854-1.902,1.902
		v26.572c0,1.051,0.854,1.898,1.902,1.898h44.771c1.058,0,1.903-0.854,1.903-1.898v-11.078h4.433
		c1.074,7.705,7.712,13.652,15.711,13.652c7.997,0,14.63-5.947,15.713-13.652h4.43v11.078c0,1.051,0.854,1.898,1.903,1.898h45.405
		c1.053,0,1.897-0.854,1.897-1.898v-26.572C626.607,458.197,625.756,457.345,624.703,457.345 M533.301,483.916h-40.963v-22.764
		h40.963V483.916z M557.252,484.595c-6.65,0-12.063-5.412-12.063-12.063s5.411-12.063,12.063-12.063s12.061,5.41,12.061,12.063
		C569.313,479.183,563.902,484.595,557.252,484.595 M622.802,483.916h-41.6v-22.764h41.6V483.916z M522.918,474.75h5.564
		c1.053,0,1.902-0.854,1.902-1.898v-7.699c0-1.053-0.854-1.902-1.902-1.902h-5.564c-1.053,0-1.898,0.854-1.898,1.902v7.699
		C521.014,473.896,521.865,474.75,522.918,474.75 M524.821,467.048h1.757v3.895h-1.757V467.048z M563.34,499.511l-0.145-1.951
		c-0.456-0.316-0.941-0.598-1.447-0.838l-1.762,0.852c-0.261-0.084-0.526-0.156-0.799-0.215l-1.102-1.615
		c-0.276-0.027-0.555-0.035-0.839-0.035c-0.281,0-0.557,0.014-0.836,0.035l-1.099,1.615c-0.27,0.059-0.536,0.139-0.801,0.215
		l-1.759-0.852c-0.509,0.24-0.991,0.521-1.45,0.838l-0.145,1.951c-0.196,0.193-0.396,0.379-0.578,0.58l-1.954,0.141
		c-0.307,0.463-0.588,0.949-0.838,1.453l0.854,1.764c-0.084,0.26-0.153,0.521-0.214,0.797l-1.623,1.1
		c-0.021,0.275-0.025,0.557-0.025,0.838c0,0.287,0.013,0.566,0.025,0.844l1.623,1.1c0.061,0.271,0.133,0.529,0.214,0.799
		l-0.854,1.762c0.249,0.508,0.522,0.988,0.838,1.455l1.954,0.137c0.188,0.203,0.38,0.396,0.578,0.582l0.145,1.951
		c0.459,0.314,0.941,0.596,1.45,0.838l1.759-0.852c0.265,0.084,0.531,0.154,0.801,0.215l1.099,1.613
		c0.279,0.027,0.555,0.033,0.836,0.033c0.284,0,0.563-0.012,0.839-0.033l1.102-1.613c0.271-0.061,0.536-0.139,0.799-0.215
		l1.762,0.852c0.506-0.242,0.991-0.521,1.447-0.838l0.145-1.951c0.196-0.193,0.397-0.379,0.578-0.582l1.954-0.137
		c0.307-0.467,0.599-0.947,0.839-1.455l-0.854-1.762c0.084-0.256,0.151-0.521,0.212-0.799l1.62-1.1
		c0.022-0.275,0.025-0.557,0.025-0.844c0-0.281-0.01-0.563-0.025-0.838l-1.62-1.1c-0.061-0.273-0.136-0.531-0.212-0.797l0.854-1.764
		c-0.24-0.504-0.523-0.99-0.839-1.455l-1.954-0.139C563.737,499.89,563.544,499.697,563.34,499.511 M557.239,509.884
		c-2.119,0-3.836-1.717-3.836-3.834c0-2.119,1.718-3.836,3.836-3.836c2.116,0,3.835,1.725,3.835,3.836
		C561.074,508.167,559.357,509.884,557.239,509.884 M522.918,508.085h5.564c1.053,0,1.902-0.854,1.902-1.898v-7.699
		c0-1.051-0.854-1.902-1.902-1.902h-5.564c-1.053,0-1.898,0.854-1.898,1.902v7.699C521.014,507.232,521.865,508.085,522.918,508.085
		 M524.821,500.384h1.757v3.896h-1.757V500.384z M496.332,515.164h22.076c1.053,0,1.904-0.855,1.904-1.904v-14.775
		c0-1.051-0.854-1.902-1.904-1.902h-22.076c-1.053,0-1.904,0.854-1.904,1.902v14.775
		C494.428,514.31,495.279,515.164,496.332,515.164 M498.235,500.384h18.27v10.98h-18.27V500.384z M624.703,490.679h-45.405
		c-1.054,0-1.903,0.854-1.903,1.898v11.695h-4.391c-0.947-7.855-7.644-13.967-15.752-13.967c-8.105,0-14.808,6.109-15.75,13.967
		h-4.394v-11.695c0-1.051-0.854-1.898-1.903-1.898h-44.771c-1.051,0-1.902,0.854-1.902,1.898v26.572
		c0,1.051,0.854,1.902,1.902,1.902h44.771c1.058,0,1.903-0.854,1.903-1.902v-11.07h4.394c0.942,7.855,7.645,13.965,15.75,13.965
		c8.108,0,14.805-6.109,15.752-13.965h4.391v11.07c0,1.051,0.854,1.902,1.903,1.902h45.405c1.053,0,1.897-0.854,1.897-1.902v-26.566
		C626.607,491.533,625.756,490.679,624.703,490.679 M533.301,517.251h-40.963v-22.766h40.963V517.251z M557.252,518.244
		c-6.65,0-12.063-5.418-12.063-12.07c0-6.643,5.411-12.061,12.063-12.061s12.061,5.418,12.061,12.061
		C569.313,512.832,563.902,518.244,557.252,518.244 M622.802,517.251h-41.6v-22.766h41.6V517.251z M624.703,524.017h-45.405
		c-1.054,0-1.903,0.854-1.903,1.898v11.693h-4.43c-1.081-7.703-7.721-13.656-15.713-13.656c-7.999,0-14.629,5.953-15.711,13.656
		h-4.433v-11.693c0-1.053-0.854-1.898-1.903-1.898h-44.771c-1.051,0-1.902,0.854-1.902,1.898v26.57c0,1.053,0.854,1.896,1.902,1.896
		h44.771c1.058,0,1.903-0.852,1.903-1.896v-11.07h4.354c0.802,8.006,7.575,14.277,15.789,14.277c8.211,0,14.988-6.271,15.79-14.277
		h4.353v11.07c0,1.053,0.854,1.896,1.903,1.896h45.405c1.053,0,1.897-0.852,1.897-1.896v-26.566
		C626.607,524.869,625.756,524.017,624.703,524.017 M533.301,550.587h-40.963v-22.756h40.963V550.587z M557.252,551.892
		c-6.65,0-12.063-5.41-12.063-12.063c0-6.65,5.411-12.061,12.063-12.061s12.061,5.41,12.061,12.061
		C569.313,546.482,563.902,551.892,557.252,551.892 M622.802,550.587h-41.6v-22.756h41.6V550.587z M586.655,541.419h5.564
		c1.061,0,1.905-0.854,1.905-1.902v-7.699c0-1.051-0.853-1.898-1.905-1.898h-5.564c-1.05,0-1.898,0.854-1.898,1.898v7.699
		C584.754,540.57,585.605,541.419,586.655,541.419 M588.56,533.72h1.76v3.895h-1.76V533.72z M563.34,465.863l-0.145-1.953
		c-0.456-0.311-0.941-0.59-1.447-0.838l-1.762,0.854c-0.261-0.084-0.526-0.154-0.799-0.215l-1.102-1.623
		c-0.276-0.02-0.555-0.025-0.839-0.025c-0.281,0-0.557,0.01-0.836,0.025l-1.099,1.623c-0.27,0.063-0.536,0.133-0.801,0.215
		l-1.759-0.854c-0.509,0.248-0.991,0.521-1.45,0.838l-0.145,1.953c-0.196,0.184-0.396,0.379-0.578,0.578l-1.954,0.145
		c-0.307,0.459-0.588,0.943-0.838,1.449l0.854,1.764c-0.084,0.258-0.153,0.523-0.214,0.797l-1.623,1.102
		c-0.021,0.275-0.025,0.555-0.025,0.836s0.013,0.561,0.025,0.838l1.623,1.1c0.061,0.271,0.133,0.537,0.214,0.799l-0.854,1.764
		c0.249,0.504,0.522,0.986,0.838,1.443l1.954,0.146c0.188,0.197,0.38,0.396,0.578,0.578l0.145,1.955
		c0.459,0.309,0.941,0.594,1.45,0.836l1.759-0.854c0.265,0.084,0.531,0.152,0.801,0.213l1.099,1.621
		c0.279,0.023,0.555,0.027,0.836,0.027c0.284,0,0.563-0.012,0.839-0.027l1.102-1.621c0.271-0.061,0.536-0.133,0.799-0.213
		l1.762,0.854c0.506-0.242,0.991-0.523,1.447-0.836l0.145-1.955c0.196-0.186,0.397-0.377,0.578-0.578l1.954-0.146
		c0.307-0.457,0.599-0.939,0.839-1.443l-0.854-1.764c0.084-0.262,0.151-0.527,0.212-0.799l1.62-1.1
		c0.022-0.277,0.025-0.555,0.025-0.838c0-0.281-0.01-0.561-0.025-0.836l-1.62-1.102c-0.061-0.27-0.136-0.537-0.212-0.797
		l0.854-1.764c-0.24-0.506-0.523-0.99-0.839-1.449l-1.954-0.145C563.737,466.242,563.544,466.046,563.34,465.863 M557.239,476.236
		c-2.119,0-3.836-1.719-3.836-3.828c0-2.119,1.718-3.834,3.836-3.834c2.116,0,3.835,1.717,3.835,3.834
		C561.074,474.519,559.357,476.236,557.239,476.236 M496.332,481.826h22.076c1.053,0,1.904-0.855,1.904-1.904v-14.775
		c0-1.053-0.854-1.902-1.904-1.902h-22.076c-1.053,0-1.904,0.854-1.904,1.902v14.775
		C494.428,480.974,495.279,481.826,496.332,481.826 M498.235,467.048h18.27v10.98h-18.27V467.048z M596.731,548.5h22.081
		c1.054,0,1.898-0.854,1.898-1.9v-14.775c0-1.051-0.851-1.898-1.898-1.898H596.73c-1.053,0-1.897,0.854-1.897,1.898v14.775
		C594.825,547.644,595.679,548.5,596.731,548.5 M598.633,533.72h18.271v10.973h-18.271V533.72z"/>
	<g enable-background="new    ">
		<path d="M491.611,580.935l-5.807-17.809h2.483l2.772,8.777c0.768,2.396,1.428,4.57,1.902,6.658h0.053
			c0.504-2.064,1.238-4.313,2.036-6.633l3.004-8.799h2.458l-6.366,17.809L491.611,580.935L491.611,580.935z"/>
		<path d="M502.441,563.337c1.108-0.186,2.563-0.344,4.412-0.344c2.279,0,3.938,0.521,4.993,1.479
			c0.979,0.848,1.56,2.141,1.56,3.721c0,1.617-0.469,2.885-1.375,3.811c-1.215,1.293-3.196,1.953-5.436,1.953
			c-0.688,0-1.329-0.025-1.851-0.158v7.133h-2.298L502.441,563.337L502.441,563.337z M504.74,571.925
			c0.502,0.137,1.137,0.186,1.897,0.186c2.779,0,4.473-1.348,4.473-3.807c0-2.346-1.671-3.486-4.208-3.486
			c-1.004,0-1.771,0.078-2.166,0.186L504.74,571.925L504.74,571.925z"/>
		<path d="M516.494,580.935v-17.809h2.511l5.706,9.01c1.32,2.088,2.354,3.963,3.197,5.787l0.053-0.027
			c-0.211-2.385-0.265-4.545-0.265-7.318v-7.457h2.167v17.809h-2.325l-5.654-9.037c-1.237-1.98-2.431-4.016-3.328-5.947l-0.08,0.027
			c0.133,2.246,0.187,4.387,0.187,7.35v7.611L516.494,580.935L516.494,580.935z"/>
		<path d="M539.477,563.337c1.109-0.186,2.563-0.344,4.411-0.344c2.279,0,3.938,0.521,4.995,1.479
			c0.979,0.848,1.559,2.141,1.559,3.721c0,1.617-0.469,2.885-1.374,3.811c-1.216,1.293-3.197,1.953-5.441,1.953
			c-0.688,0-1.32-0.025-1.843-0.158v7.133h-2.299L539.477,563.337L539.477,563.337z M541.775,571.925
			c0.5,0.137,1.129,0.186,1.897,0.186c2.779,0,4.468-1.348,4.468-3.807c0-2.346-1.666-3.486-4.202-3.486
			c-1.005,0-1.771,0.078-2.166,0.186L541.775,571.925L541.775,571.925z"/>
		<path d="M553.028,572.136c0-1.506-0.027-2.801-0.106-3.99h2.033l0.084,2.51h0.104c0.578-1.719,1.981-2.803,3.541-2.803
			c0.265,0,0.448,0.029,0.66,0.084v2.188c-0.236-0.053-0.475-0.08-0.793-0.08c-1.639,0-2.801,1.24-3.116,2.986
			c-0.055,0.316-0.105,0.688-0.105,1.084v6.816h-2.298L553.028,572.136L553.028,572.136z"/>
		<path d="M572.974,574.435c0,4.73-3.274,6.789-6.365,6.789c-3.462,0-6.132-2.535-6.132-6.574c0-4.281,2.802-6.799,6.342-6.799
			C570.49,567.855,572.974,570.525,572.974,574.435z M562.828,574.566c0,2.803,1.619,4.914,3.884,4.914
			c2.22,0,3.884-2.086,3.884-4.967c0-2.166-1.084-4.914-3.831-4.914S562.828,572.136,562.828,574.566z"/>
		<path d="M576.616,568.146l2.511,7.186c0.416,1.164,0.766,2.221,1.023,3.277h0.084c0.292-1.064,0.662-2.119,1.076-3.277
			l2.489-7.186h2.433l-5.025,12.795h-2.22l-4.861-12.795H576.616z"/>
		<path d="M591.014,564.554c0.025,0.797-0.555,1.426-1.479,1.426c-0.818,0-1.405-0.633-1.405-1.426c0-0.818,0.608-1.455,1.459-1.455
			C590.459,563.099,591.014,563.734,591.014,564.554z M588.424,580.935V568.14h2.332v12.795H588.424z"/>
		<path d="M605.65,562.175v15.455c0,1.131,0.025,2.432,0.1,3.305h-2.088l-0.1-2.227h-0.054c-0.713,1.426-2.278,2.51-4.366,2.51
			c-3.091,0-5.469-2.615-5.469-6.5c-0.027-4.254,2.613-6.869,5.733-6.869c1.955,0,3.275,0.926,3.856,1.955h0.053v-7.637
			L605.65,562.175L605.65,562.175z M603.324,573.351c0-0.289-0.026-0.688-0.104-0.977c-0.345-1.48-1.611-2.695-3.355-2.695
			c-2.397,0-3.824,2.119-3.824,4.939c0,2.59,1.268,4.729,3.771,4.729c1.565,0,2.992-1.029,3.409-2.773
			c0.084-0.316,0.104-0.633,0.104-1.01V573.351L603.324,573.351z"/>
		<path d="M610.799,574.964c0.053,3.145,2.064,4.438,4.387,4.438c1.664,0,2.668-0.291,3.539-0.66l0.397,1.664
			c-0.82,0.369-2.22,0.799-4.254,0.799c-3.938,0-6.289-2.59-6.289-6.453c0-3.859,2.271-6.898,5.997-6.898
			c4.176,0,5.285,3.676,5.285,6.029c0,0.467-0.054,0.844-0.084,1.076L610.799,574.964L610.799,574.964z M617.615,573.298
			c0.025-1.479-0.607-3.777-3.224-3.777c-2.346,0-3.383,2.172-3.561,3.777H617.615z"/>
		<path d="M622.738,572.136c0-1.506-0.025-2.801-0.105-3.99h2.034l0.079,2.51h0.104c0.583-1.719,1.982-2.803,3.548-2.803
			c0.262,0,0.449,0.029,0.661,0.084v2.188c-0.243-0.053-0.477-0.08-0.799-0.08c-1.632,0-2.8,1.24-3.11,2.986
			c-0.054,0.316-0.105,0.688-0.105,1.084v6.816h-2.299L622.738,572.136L622.738,572.136z"/>
	</g>
</g>
<g id="Node-WebServer">
	<path fill="#231F20" d="M956.83,122.963h4.979c0.947,0,1.707-0.764,1.707-1.707v-6.903c0-0.941-0.762-1.706-1.707-1.706h-4.979
		c-0.941,0-1.707,0.763-1.707,1.706v6.903C955.123,122.2,955.888,122.963,956.83,122.963 M958.537,116.062h1.566v3.49h-1.566
		V116.062z M1007.14,152.845h4.986c0.941,0,1.705-0.765,1.705-1.707v-6.903c0-0.941-0.764-1.707-1.705-1.707h-4.986
		c-0.943,0-1.709,0.764-1.709,1.707v6.903C1005.431,152.082,1006.195,152.845,1007.14,152.845 M1008.845,145.942h1.568v3.491h-1.568
		V145.942z M1016.167,189.071h19.787c0.941,0,1.707-0.765,1.707-1.707v-13.245c0-0.943-0.766-1.707-1.707-1.707h-19.787
		c-0.943,0-1.707,0.764-1.707,1.707v13.245C1014.46,188.306,1015.224,189.071,1016.167,189.071 M1017.875,175.824h16.377v9.833
		h-16.377V175.824z M1007.14,122.963h4.986c0.941,0,1.705-0.764,1.705-1.707v-6.903c0-0.941-0.764-1.706-1.705-1.706h-4.986
		c-0.943,0-1.709,0.763-1.709,1.706v6.903C1005.431,122.2,1006.195,122.963,1007.14,122.963 M1008.845,116.062h1.568v3.49h-1.568
		V116.062z M956.83,182.727h4.979c0.947,0,1.707-0.763,1.707-1.706v-6.903c0-0.943-0.762-1.707-1.707-1.707h-4.979
		c-0.941,0-1.707,0.764-1.707,1.707v6.903C955.123,181.963,955.888,182.727,956.83,182.727 M958.537,175.824h1.566v3.49h-1.566
		V175.824z M933,189.071h19.783c0.941,0,1.707-0.765,1.707-1.707v-13.245c0-0.943-0.766-1.707-1.707-1.707H933
		c-0.941,0-1.707,0.764-1.707,1.707v13.245C931.292,188.306,932.058,189.071,933,189.071 M934.705,175.824h16.373v9.833h-16.373
		V175.824z M1041.244,107.363h-51.506c-0.943,0-1.707,0.764-1.707,1.707v10.482h-7.105V109.07c0-0.943-0.766-1.707-1.707-1.707
		h-51.506c-0.939,0-1.707,0.764-1.707,1.707v23.818c0,0.942,0.768,1.707,1.707,1.707h51.506c0.941,0,1.707-0.765,1.707-1.707v-9.923
		h7.105v9.923c0,0.942,0.764,1.707,1.707,1.707h51.506c0.939,0,1.705-0.765,1.705-1.707V109.07
		C1042.949,108.127,1042.185,107.363,1041.244,107.363 M977.511,131.182h-48.092v-20.407h48.092V131.182z M1039.537,131.182h-48.094
		v-20.407h48.094V131.182z M1007.14,182.727h4.986c0.941,0,1.705-0.763,1.705-1.706v-6.903c0-0.943-0.764-1.707-1.705-1.707h-4.986
		c-0.943,0-1.709,0.764-1.709,1.707v6.903C1005.431,181.963,1006.195,182.727,1007.14,182.727 M1008.845,175.824h1.568v3.49h-1.568
		V175.824z M1016.167,159.189h19.787c0.941,0,1.707-0.765,1.707-1.707v-13.247c0-0.941-0.766-1.707-1.707-1.707h-19.787
		c-0.943,0-1.707,0.764-1.707,1.707v13.247C1014.46,158.425,1015.224,159.189,1016.167,159.189 M1017.875,145.942h16.377v9.834
		h-16.377V145.942z M956.83,152.845h4.979c0.947,0,1.707-0.765,1.707-1.707v-6.903c0-0.941-0.762-1.707-1.707-1.707h-4.979
		c-0.941,0-1.707,0.764-1.707,1.707v6.903C955.123,152.082,955.888,152.845,956.83,152.845 M958.537,145.942h1.566v3.491h-1.566
		V145.942z M933,159.189h19.783c0.941,0,1.707-0.765,1.707-1.707v-13.247c0-0.941-0.766-1.707-1.707-1.707H933
		c-0.941,0-1.707,0.764-1.707,1.707v13.247C931.292,158.425,932.058,159.189,933,159.189 M934.705,145.942h16.373v9.834h-16.373
		V145.942z M1041.244,167.125h-51.506c-0.943,0-1.707,0.764-1.707,1.707v10.482h-7.105v-10.482c0-0.943-0.766-1.707-1.707-1.707
		h-51.506c-0.939,0-1.707,0.764-1.707,1.707v23.818c0,0.941,0.768,1.706,1.707,1.706h51.506c0.941,0,1.707-0.765,1.707-1.706v-9.924
		h7.105v9.924c0,0.941,0.764,1.706,1.707,1.706h51.506c0.939,0,1.705-0.765,1.705-1.706v-23.818
		C1042.949,167.889,1042.185,167.125,1041.244,167.125 M977.511,190.945h-48.092v-20.406h48.092V190.945z M1039.537,190.945h-48.094
		v-20.406h48.094V190.945z M1041.244,137.245h-51.506c-0.943,0-1.707,0.764-1.707,1.707v10.483h-7.105v-10.483
		c0-0.942-0.766-1.707-1.707-1.707h-51.506c-0.939,0-1.707,0.764-1.707,1.707v23.818c0,0.942,0.768,1.707,1.707,1.707h51.506
		c0.941,0,1.707-0.764,1.707-1.707v-9.923h7.105v9.923c0,0.942,0.764,1.707,1.707,1.707h51.506c0.939,0,1.705-0.764,1.705-1.707
		v-23.818C1042.949,138.009,1042.185,137.245,1041.244,137.245 M977.511,161.063h-48.092v-20.407h48.092V161.063z M1039.537,161.063
		h-48.094v-20.407h48.094V161.063z M1016.167,129.307h19.787c0.941,0,1.707-0.763,1.707-1.706v-13.247
		c0-0.941-0.766-1.706-1.707-1.706h-19.787c-0.943,0-1.707,0.763-1.707,1.706v13.247
		C1014.46,128.544,1015.224,129.307,1016.167,129.307 M1017.875,116.062h16.377v9.833h-16.377V116.062z M933,129.307h19.783
		c0.941,0,1.707-0.763,1.707-1.706v-13.247c0-0.941-0.766-1.706-1.707-1.706H933c-0.941,0-1.707,0.763-1.707,1.706v13.247
		C931.292,128.544,932.058,129.307,933,129.307 M934.705,116.062h16.373v9.833h-16.373V116.062z"/>
	<path fill="#231F20" d="M1036.406,6.902H932.55c-1.186,0-2.146,0.96-2.146,2.145v90.888c0,1.184,0.961,2.145,2.146,2.145h103.855
		c1.182,0,2.145-0.961,2.145-2.145V9.047C1038.55,7.862,1037.589,6.902,1036.406,6.902 M1034.259,97.79h-99.566V11.192h99.574
		L1034.259,97.79L1034.259,97.79z M1017.783,32.271h11.475c1.184,0,2.146-0.96,2.146-2.145V18.652c0-1.185-0.965-2.146-2.146-2.146
		h-11.475c-1.184,0-2.146,0.96-2.146,2.146v11.474C1015.636,31.311,1016.597,32.271,1017.783,32.271 M1019.925,20.797h7.186v7.184
		h-7.186V20.797z M997.923,32.271h11.475c1.184,0,2.146-0.96,2.146-2.145V18.652c0-1.185-0.963-2.146-2.146-2.146h-11.475
		c-1.184,0-2.146,0.96-2.146,2.146v11.474C995.777,31.311,996.738,32.271,997.923,32.271 M1000.068,20.797h7.184v7.184h-7.184
		V20.797z M939.699,95.018h89.564c1.184,0,2.145-0.961,2.145-2.145V37.732c0-1.184-0.963-2.145-2.145-2.145h-89.564
		c-1.184,0-2.146,0.96-2.146,2.145v55.141C937.556,94.058,938.515,95.018,939.699,95.018 M941.843,39.877h85.275v50.851h-85.275
		V39.877z"/>
	<g enable-background="new    ">
		<path d="M926.708-9.341l-4.518-17.807h2.43l2.119,9.009c0.521,2.219,1.006,4.438,1.322,6.156h0.053
			c0.291-1.771,0.846-3.884,1.453-6.184l2.381-8.983h2.4l2.174,9.036c0.502,2.115,0.973,4.229,1.238,6.104h0.055
			c0.367-1.955,0.871-3.936,1.426-6.156l2.352-8.983h2.35L938.9-9.342h-2.404l-2.246-9.273c-0.555-2.273-0.92-4.017-1.162-5.813
			h-0.053c-0.313,1.771-0.713,3.515-1.375,5.813l-2.537,9.273L926.708-9.341L926.708-9.341z"/>
		<path d="M946.494-15.313c0.053,3.144,2.061,4.438,4.387,4.438c1.662,0,2.668-0.291,3.539-0.661l0.396,1.665
			c-0.818,0.369-2.219,0.793-4.254,0.793c-3.938,0-6.289-2.59-6.289-6.447c0-3.858,2.271-6.896,5.998-6.896
			c4.176,0,5.285,3.673,5.285,6.025c0,0.474-0.053,0.845-0.084,1.083H946.494z M953.31-16.977c0.027-1.479-0.605-3.777-3.223-3.777
			c-2.354,0-3.383,2.166-3.568,3.777H953.31z"/>
		<path d="M958.328-9.341c0.053-0.872,0.104-2.168,0.104-3.303v-15.457h2.299v8.032h0.055c0.813-1.427,2.291-2.351,4.357-2.351
			c3.164,0,5.416,2.643,5.393,6.526c0,4.571-2.889,6.844-5.734,6.844c-1.85,0-3.332-0.713-4.281-2.404h-0.084L960.33-9.34
			L958.328-9.341L958.328-9.341z M960.73-14.467c0,0.29,0.055,0.581,0.105,0.846c0.449,1.612,1.791,2.721,3.488,2.721
			c2.43,0,3.883-1.981,3.883-4.915c0-2.562-1.32-4.756-3.811-4.756c-1.58,0-3.059,1.083-3.541,2.853
			c-0.053,0.264-0.133,0.581-0.133,0.952L960.73-14.467L960.73-14.467z"/>
		<path d="M978.826-12.141c1.029,0.632,2.535,1.162,4.121,1.162c2.352,0,3.727-1.242,3.727-3.039c0-1.664-0.953-2.615-3.355-3.541
			c-2.906-1.03-4.703-2.536-4.703-5.045c0-2.775,2.291-4.835,5.754-4.835c1.822,0,3.145,0.423,3.938,0.872l-0.635,1.876
			c-0.578-0.316-1.77-0.847-3.383-0.847c-2.432,0-3.355,1.454-3.355,2.669c0,1.666,1.076,2.485,3.541,3.436
			c3.014,1.163,4.545,2.615,4.545,5.231c0,2.748-2.033,5.126-6.242,5.126c-1.719,0-3.594-0.502-4.541-1.136L978.826-12.141z"/>
		<path d="M993.541-15.313c0.051,3.144,2.061,4.438,4.379,4.438c1.67,0,2.67-0.291,3.547-0.661l0.396,1.665
			c-0.818,0.369-2.219,0.793-4.256,0.793c-3.936,0-6.293-2.59-6.293-6.447c0-3.858,2.277-6.896,5.998-6.896
			c4.176,0,5.283,3.673,5.283,6.025c0,0.474-0.053,0.845-0.08,1.083H993.541z M1000.355-16.977c0.027-1.479-0.605-3.777-3.223-3.777
			c-2.354,0-3.383,2.166-3.568,3.777H1000.355z"/>
		<path d="M1005.478-18.139c0-1.507-0.027-2.802-0.104-3.99h2.033l0.078,2.509h0.105c0.582-1.718,1.982-2.801,3.541-2.801
			c0.264,0,0.455,0.028,0.66,0.081v2.192c-0.236-0.053-0.469-0.081-0.793-0.081c-1.637,0-2.799,1.242-3.117,2.987
			c-0.053,0.316-0.104,0.688-0.104,1.083v6.817h-2.295L1005.478-18.139L1005.478-18.139z"/>
		<path d="M1015.675-22.129l2.51,7.185c0.416,1.164,0.768,2.22,1.023,3.276h0.084c0.291-1.057,0.66-2.113,1.076-3.276l2.488-7.185
			h2.434l-5.023,12.788h-2.223l-4.861-12.788H1015.675z"/>
		<path d="M1028.513-15.313c0.053,3.144,2.064,4.438,4.387,4.438c1.664,0,2.668-0.291,3.539-0.661l0.402,1.665
			c-0.818,0.369-2.225,0.793-4.26,0.793c-3.936,0-6.287-2.59-6.287-6.447c0-3.858,2.271-6.896,5.998-6.896
			c4.174,0,5.283,3.673,5.283,6.025c0,0.474-0.053,0.845-0.078,1.083H1028.513z M1035.33-16.977
			c0.029-1.479-0.607-3.777-3.219-3.777c-2.352,0-3.387,2.166-3.566,3.777H1035.33z"/>
		<path d="M1040.453-18.139c0-1.507-0.027-2.802-0.105-3.99h2.033l0.084,2.509h0.105c0.578-1.718,1.98-2.801,3.539-2.801
			c0.266,0,0.449,0.028,0.66,0.081v2.192c-0.236-0.053-0.475-0.081-0.791-0.081c-1.639,0-2.801,1.242-3.117,2.987
			c-0.055,0.316-0.105,0.688-0.105,1.083v6.817h-2.299L1040.453-18.139L1040.453-18.139z"/>
	</g>
	<g>
		<g>
			<polyline fill="none" stroke="#000000" stroke-width="1.3208" stroke-miterlimit="10" points="1067.406,218.056 
				1067.406,219.376 1066.085,219.376 			"/>
			
				<line fill="none" stroke="#000000" stroke-width="1.3208" stroke-miterlimit="10" stroke-dasharray="2.6416,2.6416" x1="1062.783" y1="219.376" x2="905.609" y2="219.376"/>
			<polyline fill="none" stroke="#000000" stroke-width="1.3208" stroke-miterlimit="10" points="904.949,219.376 903.626,219.376 
				903.626,218.056 			"/>
			
				<line fill="none" stroke="#000000" stroke-width="1.3208" stroke-miterlimit="10" stroke-dasharray="2.6416,2.6416" x1="903.626" y1="216.074" x2="903.626" y2="-36.198"/>
			<polyline fill="none" stroke="#000000" stroke-width="1.3208" stroke-miterlimit="10" points="903.626,-38.179 903.626,-39.5 
				904.949,-39.5 			"/>
			
				<line fill="none" stroke="#000000" stroke-width="1.3208" stroke-miterlimit="10" stroke-dasharray="2.6416,2.6416" x1="906.929" y1="-39.5" x2="1064.103" y2="-39.5"/>
			<polyline fill="none" stroke="#000000" stroke-width="1.3208" stroke-miterlimit="10" points="1066.085,-39.5 1067.406,-39.5 
				1067.406,-38.179 			"/>
			
				<line fill="none" stroke="#000000" stroke-width="1.3208" stroke-miterlimit="10" stroke-dasharray="2.6416,2.6416" x1="1067.406" y1="-34.877" x2="1067.406" y2="217.395"/>
		</g>
	</g>
</g>
<g id="Path-RequestURL" display="none">
	<g display="inline">
		
			<line fill="none" stroke="#000000" stroke-width="2" stroke-miterlimit="10" x1="-14.987" y1="317.775" x2="-14.987" y2="470.988"/>
		<g>
			<polygon points="-21.572,320.417 -14.987,309.013 -8.402,320.417 			"/>
		</g>
	</g>
</g>
<g id="Path-ResolveURL" display="none">
	<g display="inline">
		
			<line fill="none" stroke="#000000" stroke-width="2" stroke-miterlimit="10" x1="-1.779" y1="233.286" x2="186.013" y2="120.281"/>
		<g>
			<polygon points="187.758,126.918 194.135,115.394 180.966,115.632 			"/>
		</g>
	</g>
</g>
<g id="Path-FoundWebServer" display="none">
	<g display="inline">
		<line fill="none" stroke="#000000" stroke-width="2" stroke-miterlimit="10" x1="721.142" y1="87.989" x2="894.185" y2="73.036"/>
		<g>
			<polygon points="892.832,79.764 903.626,72.22 891.697,66.641 			"/>
		</g>
	</g>
</g>
<g id="Path-ReturnFromServer" display="none">
	<g display="inline">
		
			<line fill="none" stroke="#000000" stroke-width="2" stroke-miterlimit="10" x1="903.626" y1="148.963" x2="135.521" y2="263.328"/>
		<g>
			<polygon points="136.457,256.53 126.146,264.723 138.396,269.559 			"/>
		</g>
	</g>
</g>
<g id="Path-ISPToWebServer" display="none">
	<g display="inline">
		
			<line fill="none" stroke="#000000" stroke-width="2.6416" stroke-miterlimit="10" x1="194.135" y1="115.394" x2="195.454" y2="115.326"/>
		
			<line fill="none" stroke="#000000" stroke-width="2" stroke-miterlimit="10" stroke-dasharray="2.6386,2.6386" x1="198.089" y1="115.188" x2="718.505" y2="88.126"/>
		
			<line fill="none" stroke="#000000" stroke-width="2.6416" stroke-miterlimit="10" x1="719.822" y1="88.058" x2="721.142" y2="87.989"/>
	</g>
</g>
<g id="Path-ReturnFromISP" display="none">
	<g display="inline">
		<line fill="none" stroke="#000000" stroke-width="2" stroke-miterlimit="10" x1="27.278" y1="308.53" x2="27.278" y2="461.742"/>
		<g>
			<polygon points="20.822,460.421 27.278,471.603 33.734,460.421 			"/>
		</g>
	</g>
</g>
<g id="Path-WebServerToVPN" display="none">
	<g display="inline">
		<polyline fill="none" stroke="#000000" stroke-width="2" stroke-linejoin="round" points="903.626,200.341 626.608,301.266 
			608.024,438.482 		"/>
		<g>
			<polygon points="601.757,435.687 606.752,447.875 614.811,437.457 			"/>
		</g>
	</g>
</g>
<g id="Path-VPNToWebServer" display="none">
	<g display="inline">
		<polyline fill="none" stroke="#000000" stroke-width="2" stroke-linejoin="round" points="508.695,447.875 545.032,277.706 
			894.437,178.037 		"/>
		<g>
			<polygon points="894.39,184.898 903.552,175.436 890.779,172.232 			"/>
		</g>
	</g>
</g>
<g id="EncryptedPath-ReturnFromISP" display="none">
	<g display="inline">
		<line fill="none" stroke="#000000" stroke-width="5" stroke-miterlimit="10" x1="27.278" y1="308.53" x2="27.278" y2="461.742"/>
		<g>
			<polygon points="20.693,459.101 27.278,470.505 33.864,459.101 			"/>
		</g>
	</g>
</g>
<g id="EncryptedPath-FoundVPN" display="none">
	<g display="inline">
		
			<line fill="none" stroke="#000000" stroke-width="5" stroke-miterlimit="10" x1="460.217" y1="329.12" x2="483.876" y2="437.951"/>
		<g>
			<polygon points="477.03,437.468 485.889,447.214 489.901,434.669 			"/>
		</g>
	</g>
</g>
<g id="EncryptedPath-VPNToISP" display="none">
	<g display="inline">
		<polyline fill="none" stroke="#000000" stroke-width="5" stroke-linejoin="round" points="475.689,480.226 353.955,284.756 
			135.371,291.719 		"/>
		<g>
			<polygon points="137.088,285.074 125.898,292.021 137.507,298.24 			"/>
		</g>
	</g>
</g>
<g id="EncryptedPath-ISPToVPN" display="none">
	<g display="inline">
		
			<line fill="none" stroke="#000000" stroke-width="5.2832" stroke-linejoin="round" x1="194.135" y1="115.394" x2="195.165" y2="116.221"/>
		
			<line fill="none" stroke="#000000" stroke-width="5" stroke-linejoin="round" stroke-dasharray="2.6252,2.6252" x1="197.211" y1="117.865" x2="458.163" y2="327.47"/>
		
			<line fill="none" stroke="#000000" stroke-width="5.2832" stroke-linejoin="round" x1="459.188" y1="328.293" x2="460.217" y2="329.12"/>
	</g>
</g>
<g id="EncryptedPath-ResolveURL" display="none">
	<g display="inline">
		<line fill="none" stroke="#000000" stroke-width="5" stroke-miterlimit="10" x1="41.73" y1="233.286" x2="186.638" y2="121.193"/>
		<g>
			<polygon points="189.143,127.581 194.135,115.394 181.084,117.162 			"/>
		</g>
	</g>
</g>
<g id="EncryptedPath-RequestURL" display="none">
	<g display="inline">
		
			<line fill="none" stroke="#000000" stroke-width="5" stroke-miterlimit="10" x1="-14.987" y1="317.775" x2="-14.987" y2="470.988"/>
		<g>
			<polygon points="-21.572,320.417 -14.987,309.013 -8.402,320.417 			"/>
		</g>
	</g>
</g>
<polygon id="PlayButton" display="none" points="540.67,280.801 396.177,173.597 396.177,387.99 540.671,280.804 "/>
<rect x="-160" y="-80" display="none" fill="none" stroke="#000000" stroke-width="1.1748" stroke-miterlimit="10" width="1280" height="720"/>
</svg>
